<?xml version="1.0" encoding="utf-8"?>
<!-- Generator: Adobe Illustrator 26.5.0, SVG Export Plug-In . SVG Version: 6.00 Build 0)  -->
<svg version="1.1" id="logo" xmlns="http://www.w3.org/2000/svg" xmlns:xlink="http://www.w3.org/1999/xlink" x="0px" y="0px"
	 viewBox="0 0 540 342" style="enable-background:new 0 0 540 342;" xml:space="preserve">
<style type="text/css">
	.st0{fill:#FFFFFF;}
	.st1{fill:#DAE0E9;}
	.st2{fill:#F26829;}
	.st3{fill-rule:evenodd;clip-rule:evenodd;fill:#F26829;}
</style>
<g id="mountain_22_">
	<path id="mountain_27_" class="st0" d="M252.2,15.4c-1-0.6-4.9-3.1-4.9-3.1c0.2-0.5,0.5-1.1,0.9-1.7c0.5-0.7,1.2-1.2,2-1.4
		c1.3-0.4,2.5-0.5,3.8-0.5c0.5,0,0.9,0,0.8,0.5c-0.1,0.9,0,1.6,0.1,2.6c0,0.4,0.1,0.9,0.3,1.2c0.3,0.5,0.7,1,1,1.4
		c0.1,0.1,0.4,0.5,0.5,0.6c0.6,0.5,1.2,1.1,1.8,1.6c0.1,0,0,0.1-0.1,0.1c-1.4-0.1-2.6-0.2-4-0.7C254,16.1,252.8,15.7,252.2,15.4z
		 M219.3,60.2c0.8-1.1,0.7-2.1,1.6-3c0.6-0.6,1.7-1.2,2.7-1.8c1.2-0.7,2.6-1.5,3.7-2.1c1-0.6,1.8-1.2,2.4-1.6
		c2.2-1.6,5.9-4.1,7.5-8.5c0.4-1.1,0-2.6,2.8-5.9c1.3-1.5,2.3-2.9,3.1-3.9c1.6-2,3.1-3.5,5-4.9c1.5-1.1,3.2-2.1,4.6-3.1
		c1.9-1.3,6.5-3.7,9-6.6c0.1-0.1,0.1-0.2-0.2-0.2c-0.4,0.1-0.8,0.2-1.2,0.2c-3.3,0.6-5.3,0.4-9.3-1.7c-2-1.1-4.3-3-6.3-4.1
		c-2.9-1.6-6.3-2.3-9.5-3.4C234,9.1,233.9,9,232.5,9c-3.9-0.1-7.7-0.1-11.6-0.2c-1.4,0-2-0.1-3.4,0.2c-1.8,0.4-3.6,0.7-5.3,1.1
		c-1.4,0.3-2.8,0.8-4.1,1.5c-4.1,2.2-8.2,4.9-12.8,7.3c-2.3,1.2-3,1.4-5,3.1c-5.7,4.6-13.3,9.5-18.6,14.2c-0.6,0.5-1,1-1.2,1.6
		c-0.6,1.8-1,2.7-1.7,4c-0.1,0.2,0,0.3,0.1,0.2c3.4-2,7.5-4.2,9.6-5c0.3-0.1,0.5-0.2,0.7-0.3c0.6-0.2,0.6-0.1,0.3,0.4
		c-0.9,1.5-16.4,14.1-17.6,15.7c-5.4,5.6-10.9,11.1-16.3,16.7c-3.3,3.1-6.7,6.2-10,9.4c-0.5,0.5-1.4,1.6-1.6,1.8
		c-0.7,0.7-0.9,0.3-0.8-0.5c0.1-0.7,0.3-1.7,0.6-2.4c2.2-5.4,6.9-11.3,7.7-12.5c0.1-0.1,0-0.1-0.1-0.1c0,0,0,0-0.1,0
		c-7,3.1-28.7,16.8-35.7,19.8c-3.7,1.9-7.4,4.4-9.4,8.3c-0.9,1.7-0.1,2.7,1,3.4c1,0.6,1.8,1.1,2.4,1.4c1.5,0.8,3.3,1,4.9,1.2
		c3.8,0.5,7.2-0.3,10.5-2.2c5.3-3,6.6-5.3,7.4-7.4c0.4-1.2,0.7-2.4,1.4-3.7c0.6-1,1.8-2.1,2.1-2.3c1.3-0.7,1.8-0.1,2,0.9
		c0.2,1.2,0.2,2.6-0.5,3.6c-0.8,1.1-1.3,2.5-1.8,3.8c-0.4,1-1.5,2.8-2.8,4.4c-0.6,0.7-0.6,1.4-0.6,1.8c0,1.3,1.2,1.2,2.1,1.1
		c3.2-0.1,5.6-1.8,6.6-3.6c0.4-0.6,0.8-1.1,1.2-1.3c0.9-0.6,1.8-0.3,1.8,0.7c0.1,1.3,0.5,1.6,1.3,2.4c0.4,0.3,0.8,0.8,1.3,1.4
		c1.4,1.6,3.3,1.8,5.2,1.5c2.6-0.5,5.2-1.9,6.5-2.3c4.8-1.4,15.1-0.2,20-0.9c2.1-0.3,3.6-0.8,4.5-1.4c1.2-0.8,1.2-1.8-0.5-2.3
		s-2.9-0.4-5.1-0.3c-2.3,0.1-5.1,0.3-5.7,0.3c-2.4,0-5.6-0.3-8.5-1.6c-1.9-0.9-5.2-1.6-5.6-5.9c0-0.5-0.3-1.1-1.2-0.3
		c-1.6,1.4-3.1,3.8-5.1,4.6c-2.4,1-4.5,1.7-5.9,1.8s-2.2-0.3-2.1-1.5c0.1-0.7,0.4-1.8,1.2-3.1c1.7-3.1,4.9-5.1,7.3-7.7l8.6-9.6
		l5.5-5.9c0,0,4.6-4.6,5.8-5.6c4.2-3.8,8.5-7.6,12.7-11.4c0,0,3.5-3.1,4.8-4.3c1.2-1.2,1.7-1.7,2.2-2.4c0.6-0.8,1.8-2.4,2.5-3.2
		c0.3-0.3,0.8-0.9,1.3-1.2c1.8-1.2,3.4-2.3,5.1-3.5c0.9-0.6,2.1-1.1,2.5-1.3c0.8-0.3,1.6-0.5,2.4-0.8c0.7-0.3,1.2-0.6,1.8-1.6
		c0.9-1.5,1.8-3.1,2.7-4.6c1.3-1.9,2.5-3.7,3.4-5c0.5-0.7,1.8-1.5,2.5-1.8s1.5-0.6,2.7-1c0.4-0.1,1.5-0.5,2.8-0.9
		c0.7-0.2,1.4-0.5,2-0.6c1.2-0.3,1.2,0.3,0.9,0.7c-1.2,1.2-2.6,1.9-4,3.4c-0.8,0.9-1.8,2.1-2.6,3.3c-1.1,1.7-1.4,2.5-1.9,3.9
		c-0.3,0.7-0.9,2.1-2,2.8c-1.1,0.7-2.3,1.5-3.4,1.9c-1.3,0.6-2.5,1-3.5,1.5c-1.4,0.6-2.5,1.3-3,2.7c-0.7,2-1.3,3.6-3.4,5.3
		c-0.8,0.6-2,1.2-3,1.4c-1,0.2-2.2,0.4-3.2,0.9c-1.4,0.6-4.1,3.2-6,5c-0.7,0.7-1.9,1.9-2.8,3.2c-0.8,1.1-2.4,3.4-3.1,4.5
		c-1,1.4-2.9,4.4-3.9,5.7c-0.6,0.8-1.2,1-1.8,1.1c-0.8,0-1.6-0.1-2.2,0.4c-0.9,0.7-1.5,1.9-1.7,3c-0.1,0.4,0.1,0.7,0.2,1.1
		c0.3,0.7,0.5,1.3-0.5,2.4c-0.8,0.9-1.9,1.7-3,2.5c-1,0.7-2,1-3.4,1.5c-1,0.4-2.1,0.7-2.7,1.5c-0.5,0.7-0.9,1.7-0.5,2.5
		c0.5,1.1,1.5,1.9,2.6,2.3c2.2,0.7,4.6,1.4,6.8,0.9c1.5-0.4,2.7-1.6,3.9-2.7c0.4-0.4,2-1.4,2.7-1.9c1.4-0.8,4.2-2.4,6-3.3
		c0.9-0.5,1.1-0.5,1.4-0.8c0.7-0.5,1.3-1,1.9-1.5c6.6-5,8-4.4,11.6-10.7c-0.2,0.4,1.8-3.6,3.6-6c1.1-1.4,2.1-2,3-2.7
		c1.8-1.4,4.6-3.9,6.7-6.1c1.7-1.7,3.2-3.8,4.3-5.7c1.1-2,2.4-4.5,2.8-6.5c0.5-2,2-4.8,4.5-7.7c0.4-0.4,0.9-1.2,1.4-2.1
		c0.7-1.1,1.6-2.4,2.4-3.5c1.1-1.4,2.2-2.2,3.9-3c2.9-1.5,7.1-3.3,9.6-3.5c1.7-0.2,3.4-0.5,4.8,0.1c3.5,1.7,7.4,3.3,9.1,4.9
		c0.9,0.8,1.1,1.6,0.5,2.4c-3.6,4.2-5.9,7.5-6.8,8.3c-2.6,2.6-4.7,4-5.9,4.5c-3.3,1.2-6.7,2.4-8.9,2.4c-1.4,0-2.7,0.4-3.9,0.9
		c-1.9,0.9-3.5,2.3-4.3,3.4s-0.2,1.6,1.2,1.5c2.1-0.3,9.3-2.1,12.2-2.3c0.8-0.1,1.6,0.7-0.6,1.7c-4.6,2-13,7.2-14.2,8.2
		c-3.6,3.1-5.1,5.6-5.1,5.7c-1.5,2.8-3.3,4.1-4.9,4.8c-2.7,1-5.7,2.4-8,3.8c-1.8,1.1-3.3,2.5-3.2,4.5c0.3,4.9-2.3,8.5-5.4,8.6
		c-0.8,0-3.3,0-5.6,0.1c-3.5,0.2-5.8,1.4-6.9,5.1c-1.8,6.4,0.1,5.8,4.9,5.4c5.9-0.8,7.3,0.7,13.6-6c3.5-3.7,7.7-7.9,10.1-9.7
		c4-2.9,10.3-6.7,13.7-9.3C218.2,61.2,218.9,60.7,219.3,60.2z M347.4,87.7c-0.9,0.9-2.2,1.6-3.1,1.7c-0.8,0.1-1.4-0.1-1.3-0.9
		c0-0.4,0.2-0.8,0.6-1.4c0.1-0.2,0.5-0.7,1-1.2c2.4-2.4,4.8-6.5,7.4-11.3c0.5-0.9,2.4-4.6,3.3-5.7c2.4-3.1,6.7-7.2,9.4-9.2
		c0.9-0.7,0.2-1.1-0.5-0.8c-0.7,0.3-1.4,0.7-1.8,1c-1.6,1.1-3.5,2.4-5.1,3.5c-0.6,0.4-2.8,2.1-3.4,2.7c-0.8,0.7-1.6,1.6-2.2,2.4
		c-0.6,0.7-1.6,3-2,3.6c-2.7,4.7-9.9,12.2-14.9,16c-1.4,1.3-3.3,1.9-4.6,1.8c-1.3-0.1-2.1-0.9-1.5-2.4c0.5-1.1,2.8-4.3,3.5-5.3
		c1.9-3.3,1.6-3.6,5.1-5.8c3.4-2.1,7.9-4,9.5-4.6c0.6-0.2,1-0.6,0.6-1.2c-0.7-1.2-1.7-2.5-1.4-3.5c0.3-1,0-2.7-0.9-3.7
		c-0.9-1-1.7-2.2-1.8-2.9c0-0.2,0-0.4-0.1-0.5c-0.1-0.4-0.5-0.5-1-0.1s-0.8,0.8-1.3,1.2c-0.1,0.2-0.4,0.4-0.8,0.6
		c-0.3,0.2-0.7,0.6-1.2,1.4c-1.1,2.2-0.6,2.7-2.4,5.1c-0.5,0.6-1.2,1.9-1.5,2.7c-0.6,1.5-1.4,3.6-1.9,4.5c-0.2,0.3-1.4,2.5-2.2,3.2
		c-0.4,0.3-0.6,0.3-0.7-0.3c-0.5-5.7,1-8.6,2.7-10.7c0.6-0.8,1.9-1.1,2.2-2c1-2.6,1-2,2.6-4.2c0.7-1,0.9-1.8,0.9-2.3
		c0-0.7-0.6-0.9-1.1-0.5c-0.3,0.3-0.5,0.7-1.2,0.9c-0.4,0.2-1,0.5-1.4,0.8c-1,0.9-2.1,2.4-3.3,4.6c-0.4,0.7-1.7,3.3-2,4
		c-1.4,3.5-2.7,9.4-6,13.3c-0.2,0.2-0.4,0.4-0.6,0.6c-0.3,0.5-0.1,1-0.1,1.4c0.2,1.2,0.9,2,1.2,3.1c0.2,0.6,0.3,1.3,0.2,2.1
		c-0.1,1-0.8,1.8-1.6,2.3c-0.8,0.4-1.7,0.4-2.4-0.4c-0.4-0.4-0.7-1.1-0.7-2c-0.2-3.3-0.2-7.6,0.8-11.9c0.4-1.4,0.4-2.9,0.5-4.3
		c0.2-1.8,0.5-3.5,2-5c0.4-0.4,0.9-0.9,1.1-1.4c1.3-3.2,1.5-6.3,1.8-9.2c0.1-1.6-0.4-2.9-1.2-4c-0.6-0.9-1.3-1.8-1.8-2.8
		c-0.4-0.8-1.3-1.5-2.3-1.8c-0.8-0.3-2,0-2.7,1c-2.1,2.9-1.8,6.1-3.9,9.7c-1.3,2.6,0,3.6,1.2,6.1c0.1,0.4,0.5,1,0.9,1.7
		c2.3,4.2,1.5,8.1,0.1,12.6c-0.5,1.5-1,2.9-1.2,4.4c-0.1,0.5-0.1,1.1-0.2,1.7c-0.1,0.7-0.4,1.4-0.9,2c-0.7,1-1.7,1.9-2.6,2.2
		s-1.7,0.3-1.9-0.5c-0.2-0.5,0-1.1,0.3-2c0.5-1.4,0.5-3.3,0.7-5.1c0.4-3.4,1.2-4.4,0.9-7.9c-0.1-1.3-0.2-3.7-0.2-5.6
		c0-1.2,0.1-2.9,0-4.3c-0.3-2.9-0.5-7-1.6-9.9c-0.4-1.1-1.4-2.4-2.4-3.3c-0.3-0.3-1.4-1.2-1.4-1.2s-1.9-1.9-3.3-2.4
		c-0.8-0.3-1.8,0-2.2,0.4c-1.5,1.5-1.8,2.1-1.9,2.7c-0.1,0.5-0.1,0.9-0.7,1.7c-0.6,0.8-1.1,2.4-1.2,3.1c-0.2,1.4-0.1,2.3,0,3
		c0.2,1.2,0.6,1.7-0.4,2.9c-8.3,10-13.9,21.2-18.5,28.7c-0.3,0.4-0.8,1.3-1.6,1.6c-0.7,0.3-1.4-0.1-1.5-0.9
		c-0.4-3.3,1.4-6.4,2.2-9.6c1.2-5,0.8-8.6-0.6-11.6c-0.8-1.6-1.8-3.2-2.3-4.9c-0.6-1.7-1.8-1.7-1.9,0.6c-0.1,3.7-2.3,5.2-3.8,7
		c-3.1,3.7-4.5,6.3-7,8.8c-0.8,0.7-1.5,0.7-0.9-0.5c1.9-3.6,2.7-6.8,3.2-9.4c0.2-1.2,0.4-3.2,0.5-4c0-0.7-0.2-0.8-0.7-0.4
		c-0.7,0.6-1.8,1.7-3.1,3c-0.7,0.7-1.5,0-1.8-0.9c-0.1-0.7-0.1-1.9,0.2-2.7c0.2-0.6-0.3-1.9-1.2-0.3c-2.3,3.9-4.5,7.2-7.5,10.6
		c-3.9,4.4-9.3,10.4-10.7,12.5c-1.1,1.1-2,1.5-2.8,2c-0.8,0.4-1.6,0.9-2.6,2.1c-0.3,0.4-0.9,0.7-1.3,0.7c-0.6,0-0.9-0.4-0.9-0.9
		s0.2-1.1,0.3-1.5c1.6-4.2,7-14,7.1-15.5c0-0.5,0-1-0.2-1.3s-0.6-0.5-1-0.1c-1.3,1.2-1.9,2.7-3.2,3.2c-2.4,0.9-4.7-0.2-4.3-2.1
		c0.5-2.2,1.1-4.2,2.8-6.2c0.8-1,1.6-2.9,2.1-4c0.4-0.8,1-1.6,1.4-2.4c0.3-0.6,0.8-2.1,1.1-2.7c0.3-0.6,0.7-1.4,1.2-2
		c0.6-0.6,0.1-1.4-0.8-0.7c-0.8,0.6-2,2.2-2.7,3.2c-0.3,0.4-0.8,1.5-0.9,1.9c-0.5,1.2-1.3,2.7-2,3.8c-0.5,0.8-0.9,1.3-2,2.3
		c-1,0.8-2.1,1.9-3.1,2.9c-1.2,1.2-2.5,2.5-2.9,3.2c-1.7,2.6-3.8,6.4-5.3,9.7c-1,2.3-1.7,4.4-1.6,5.9c0,1.2-0.8,5.3-1.9,6.7
		c-1.6,2-4.3,2.9-6.6,2.7c-1.2-0.1-2.3-0.5-2.9-1.2c-0.7-0.9-0.8-2.1,0.1-3.9c0.6-1.1,2.3-3.8,3.5-5.5c2.3-3.1,5.4-7.3,7.5-10.2
		c0.6-0.8,2.7-4.4,2.7-4.4l1.8-3.5c2.3-4.4,2.3-4.4,6-7.6c1.1-1,2.3-2,3.4-3c0.4-0.4,0.9-0.7,1.3-1.1c0.5-0.5,1.6-2.2,1.6-2.2
		s1.4-1.9,1.9-2.6c0.7-0.9,1.3-1.5,2-1.9c0.4-0.2,0.9-0.5,1.1-0.9c0.2-0.3,0.4-0.6,0.5-0.9c1.1-2,2.1-4,2.5-6.3
		c0.3-1.7,0.9-3.7,1.9-5.1c2-2.8,3.3-5.7,6.1-7.7c1.3-1,1.1,0.3,1,0.6l-1.6,8.1c-0.8,3.9-3.1,7.3-4.4,11c-0.3,0.9,0.2,0.9,0.7,0.5
		c1.7-1.4,3.1-3.3,4.3-5.2c1.4-2.2,2.5-4.5,3.3-7c0.7-2.2,0.6-4.6,0.8-6.9c0.1-1.4,0.3-4.1,0.4-5.5c0-0.3,0.2-0.5,0.3-0.6
		c2.6-2,10.6-8.1,10.6-8.1l9.8-7.1c1.6-1.2,2.8-3,3.8-4.7c0.6-1.1,0.9-2.3,1.1-3.5c0.2-1.1-0.1-2.1,0.3-3.5c0.1-0.5,0.7-0.5,0.9-0.2
		c1.9,1.7,3.4,3.6,5,5.4c1.4,1.5,1.5,1.7,2.3,3.5l2.6,5.9c0,0,0.4,0.7,0.5,0.9c0.2,0.2,0.3,0.4,0.6,0.6c1.8,1.7,3.5,3.6,5.4,5.1
		c2.5,2.1,5.1,4,7.8,5.6c2.2,1.3,4.6,2.2,6.9,2.9c0.6,0.2,1.3-0.3,0.4-0.9c-3.5-2.3-7.4-5.7-10.2-9.7c-0.6-0.9-1.6-2.5-1.9-3.3
		c-0.2-0.5,0-1,0.4-0.6c0.1,0.1,2.9,2.2,2.9,2.2l11.5,8.7c1.3,1,3.2,0.3,4.7,0.4c1.1,0.1,2.2,0.3,3.1,0.8c1.2,0.6,2.3,1.3,3.5,1.9
		l-2.8,6.7c-0.8,2,1.3,4.3,2.8,5.9c1.8,1.9,4.2,3.3,6.6,4.3c1.9,0.7,4,0.1,6,0.6c3.4,1,6.4,3.2,9.9,3.9c9.1,1.7,18.3,2.4,27.4,3.5
		c2.6,0.3,3.2,0.2,5.8-0.2l8.6-1.4c2.1-0.3,4.4-0.8,6.3,0.1c7.6,3.6,14.5,8.6,21.6,13c0.5,0.3,2.4,1.3,3.3,1.7
		c4.3,2,14.9,6.5,20.7,8.9c2.5,1,7.6,3.3,9.3,4.1c12.7,5.7,23.2,10.8,34.6,19.2c0.5,0.3,1.4,1.1,1.4,1.1c-4.8-0.4-8.9-0.6-15.4-0.8
		c-5.3-0.2-14.8-3-16.1-3.5c-4.3-1.8-12.2-5.2-15.9-7.1c-0.9-0.5-1.3-0.4-0.7,0.4c1.8,2.4,3.3,4.9,3.7,6.5c0.4,1.4-1.1,2.5-3.3,2.3
		c-3.4-0.3-7.5-1.2-9.8-2c-5-1.6-8-2.2-10.6-3.2c-2.9-1.1-5.5-0.2-6.8,1.8c-0.6,0.9-1.6,1.6-3.5,2.8c-2.7,1.6-5.4,1.8-10.3,1.9
		c-9.2,0.2-27.8,0.2-36.6-0.8c-6.2-0.7-7.2-2.9-5.9-7.8c2.7-10.2,10.6-16.6,15.5-21.1c2.5-2.3,3.3-3.6,5.9-5.3
		c1.4-0.9,3-1.6,4.2-2.7c0.7-0.6,1.1-1.4,2-2.2c1.3-1,3-1.9,4.6-2.8c0.2-0.1,0.4-0.2,0.6-0.3c0.3-0.1,0.2-0.3-0.3-0.2
		c-2.4,0.5-6.9,1.6-10.3,2.7c-3.6,1.2-6.9,4.3-10.4,5.8c-1.1,0.5-2.1,0.9-2.9,1.4c-1.1,0.6-2.5,1.9-2.8,2.2
		c-0.8,0.8-1.7,1.6-2.6,2.4c-2,1.9-4,3.8-5.6,5.5c-1.2,1.3-3.2,3.9-4.7,6.2C349.8,85,348.5,86.8,347.4,87.7z M296.3,39.7
		c-0.3-2.5-1.2-5-1.9-7.4c-0.3-0.8-0.6-1.8-1.5-2.3c-0.8-0.4-2-0.5-2.9-0.4c-0.5,0.1-1.1,0.5-1.5,0.9c-0.4,0.3-0.9,0.5-1.6,0.6
		c-1.1,0.2-2.5,0.6-3.4,0.6c-0.8,0-1.2-0.7-0.3-2.2c1-1.8,4-2.7,5.1-4.6c0.2-0.3,0.6-0.9-0.4-1.2c-0.7-0.2-1.8-0.5-2.1-1.1
		c-0.4-0.8-0.9-1.8-0.6-2.6c0.1-0.2,0.2-0.6,0.3-0.9c0.2-0.7,0.3-1.4-0.1-2c-0.6-0.9-1-2.1-1.2-2.9c-0.2-0.4-0.5-0.5-0.6-0.3
		c-0.8,1.7-1.8,3.2-2.6,4c-1.7,1.5-3.4,3.1-5.5,4.1c-1.3,0.7-1.8,0.1-1.2-0.9c1.5-2.8,3.7-5.1,5-8c0.2-0.4-0.1-0.8-0.4-0.5
		c-3.1,2.5-6.3,5.9-9.4,8.4c-2.5,2.1-6,2.8-8,5.4c-0.8,1-1.1,2.2-1.3,3.5c-0.2,1.3-0.3,2.6-0.7,3.9c-0.3,1.2-0.5,2.5-0.7,3.7
		c-0.3,1.9-0.8,2.8-1.4,4c-1.2,2.1-2.8,4-3.3,6.4c-0.3,1.4,1.1,1.5,2.1,0.7c2.2-1.9,3.8-3.1,5.6-4.9c1-1,1.9-2.1,2.6-3.5
		c0.6-1.1,1.2-2.4,2-2.7c0.5-0.3,1.2-0.2,1.1,0.4c-0.4,2.7-2.2,5-2.7,7.7c-0.2,1.1,1.1,0.7,1.4,0.3c2.1-1.9,6-2.7,7.9-4.8
		c0.7-0.8,1.6-1.2,2.4-1.4c1.2-0.3,2.3,0,2.7,0.6c0.3,0.4,0.5,0.8,0.8,1c0.8,0.8,1.6,0.9,3.3-0.2c0.8-0.5,1.6-0.3,2.4,0.3
		c1,0.8,1.9,2,2.6,3c0.4,0.6,0.5,1.3,0.7,2.1c0.2,0.9,0.6,1.6,1.4,1.9c0.5,0.2,1.1,0.3,1.2,0.8c0.4,1.3-0.1,2.8-0.3,4.2
		c-0.3,2.2-0.8,4.5-1.2,6.7c-0.2,1-0.7,2.9-0.9,3.9c-0.2,0.9,0.4,1,0.8,0.6c1-1.1,1.4-2.5,2-3.8c0.6-1.5,1.6-4.5,2.1-6
		c0.7-2,2.1-3.8,2.4-5.9C296.8,45.7,296.8,42.7,296.3,39.7z M103.5,81.3c1.8-2,6.1-6.7,7.2-8c0.1-0.1,0-0.1-0.1-0.1
		c-1,0-2,0.1-2.9,0.1c-4.3,0.1-8.6,0-12.9,0.5c-3.8,0.5-6.5,1.5-10.1,2.8c-2.1,0.7-9.9,4.9-11.4,5.7c-1.8,0.9-3.4,1.8-5,2.9
		c-6.7,4.6-12.1,10.8-16.7,15.7c5.8-0.1,11.7-0.4,15.6-0.4c4.6,0,8.6-1.2,11.4-3.1c5-3.4,7.7-5.6,10.5-6.8s6.2-2.8,9-4.6
		C100.2,84.6,101.7,83.2,103.5,81.3z"/>
	<path id="mountain_shadow_7_" class="st1" d="M249.4,76.9c-3.9,4.4-9.3,10.4-10.7,12.5c-1.1,1.1-2,1.5-2.8,2
		c-0.8,0.4-1.6,0.9-2.6,2.1c-0.3,0.4-0.9,0.7-1.3,0.7c-0.6,0-0.9-0.4-0.9-0.9s0.2-1.1,0.3-1.5c1.6-4.2,7-14,7.1-15.5
		c0-0.5,0-1-0.2-1.3s-0.6-0.5-1-0.1c-1.3,1.2-1.9,2.7-3.2,3.2c-2.4,0.9-4.7-0.2-4.3-2.1c0.5-2.2,1.1-4.2,2.8-6.2
		c0.8-1,1.6-2.9,2.1-4c0.4-0.8,1-1.6,1.4-2.4c0.3-0.6,0.8-2.1,1.1-2.7c0.3-0.6,0.7-1.4,1.2-2s0.1-1.3-0.7-0.7c2-2.6,4-5.1,4.9-7.4
		c1.1-2.9,1.6-6,2.6-8.9c1-2.8,1.7-4.8,4.1-8.9c0.2-0.1,0.3-0.3,0.5-0.4c1.3-1,1.1,0.3,1,0.6l-1.6,8.1c-0.8,3.9-3.1,7.3-4.4,11
		c-0.3,0.9,0.2,0.9,0.7,0.5c1.7-1.4,3.1-3.3,4.3-5.2c1.4-2.2,2.5-4.5,3.3-7c0.7-2.2,0.6-4.6,0.8-6.9c0.1-1.4,0.3-4.1,0.4-5.5
		c0-0.1,0-0.2,0.1-0.3c2.5-0.7,7.2-2.3,9.7-3.5l0,0c-1,0.6-2,1.3-2.7,2.3c-0.8,1-1.1,2.2-1.3,3.5c-0.2,1.3-0.3,2.6-0.7,3.9
		c-0.3,1.2-0.5,2.5-0.7,3.7c-0.3,1.9-0.8,2.8-1.4,4c-1.2,2.1-2.8,4-3.3,6.4c0,0.1,0,0.2,0,0.2c-0.7,0.8-9,9.7-9.5,10.2
		c-6.5,7.4,0.4,7.8-3.5,14.5c-3.6,6.3,0.7,6.9,2.9,4.7c3.6-3.4,9.8-10.7,12.1-14.2c0.4-0.6,1.6-2,2.8-3c0.5-0.4,1.3-0.6,1,0.4
		c-0.3,1.4-0.7,2.9-1,4.3c-0.3,1.7-0.4,3.6,0.6,4.7c0.1,0.1,0.3,0.2,0.5,0.4l-0.1,0.1c-0.7,0.7-1.5,0-1.8-0.9
		c-0.1-0.7-0.1-1.9,0.2-2.7c0.2-0.6-0.3-1.9-1.2-0.3C254.6,70.2,252.4,73.5,249.4,76.9z M477.3,98.4c-1.6-1-3.3-2-4.5-2.7
		c-5.2-3.2-13.4-7.2-19-9.6c-6.9-3-14.4-4.2-21.5-6.6c-3.4-1.2-6.5-3.3-9.9-4.3c-1-0.3-2.1,0.5-1.3,1.2c5.2,4.5,9.3,5.6,13.6,10.1
		c1,1.1,3.2,4.8-1.3,4.3c-2.4-0.3-5-0.3-7.3-1.2c-3.7-1.4-6.1-2.6-9.3-4.1c-3.7-1.8-7.8-2.1-8.3,1.3c-0.3,2.2,0.9,4.7-1,6.4
		c-0.8,0.7-2.3,1.7-3.8,2.2c-4.1,1.2-9.4,0.9-14.7,0c-12.1-2.1-14.3-3.4-16.9-5.7c-2.1-1.9-4.2-7.3-0.9-11.6
		c3.1-4.1,5.8-7.6,9.9-9.3c1.2-0.5,2.8-2,4.1-3.8c2.3-3.2,5.1-7.7,8.9-10.1c1.2-0.7,0.3-1.2-1.2-0.8c-4.8,1.3-11.4,1.9-15.6,2.2
		c-1.2,0.1-3.1,1.2-5.1,3.1c-1,0.9-1.7,1.2-2.8,1.6c-0.9,0.3-1.7,0.4-2.8,0.5c-0.6,0-0.5-0.5-0.3-0.6c1.9-1.7,4.2-3.5,4.2-3.9
		c0-0.6-0.4-0.9-0.8-0.9c-3.4-0.3-6-0.2-9.8-0.3c-1,0-1.4,0.8-1.6,1.5c-0.9,3.1-3.4,5.2-9,8.7c-1.1,0.7-2.1,0.5-2.2-0.5
		c-0.2-1.2-0.7-2.4-1.4-3c-0.6-0.5-1-0.5-1.3-0.9c-0.4-0.5-0.1-1.5,0.1-1.9c0.8-1.5,4.1-4.8,5.1-6.2c0.5-0.7,0.2-0.9-0.6-0.9
		c-1.9,0.1-3.6,0.9-5.2,1.1c-0.9,0.1-1.5,0.5-2.2,1.3c-0.4,0.4-1.4,1-2,1.4c-1.2,0.6-2,0.8-2.5,0.7c-0.5-0.1-0.6-0.4-0.3-0.7
		c0.4-0.5,2.4-2.4,2.9-3.5c0.6-1.2,0.3-1.3-1-1.7c-0.9-0.3-1.8-0.4-2.6-0.3c-0.9,0.1-1.7,0.4-2.2,0.9c-0.8,0.8-2.1,2.2-3.8,3.8
		c-0.5,0.5-1.6,1.7-2.2,2.1c-0.4,0.3-0.9,0.2-0.7-0.3c0.7-1.9,1-4.5,0.7-7.7c-0.1-1.2-0.3-1.7-0.9-2.1c-1.1-0.7-2.5-1.5-3.3-2.3
		c-2.4-2.3-5.8-3.9-7.3-4.2c-1.1-0.2-1.7-0.4-1.7,0.7c0.1,5.1-0.2,9.3-1.5,12.2c-0.4,1-0.9,0.8-1.4,0.2c-0.5-0.6-1.1-1.7-1.6-2.7
		c-0.8-1.6-2.1-2.2-4-2.9c-1-0.4-2.2-0.7-3.5-1.2c-1.6-0.7-2.2-0.2-2.9,0.4c-0.8,0.8-2.6,2.4-3.5,4.1c-1.2,2.3-1.8,4.5-2.2,6.3
		c-0.7,2.5-2.8,4.8-3.9,5.9c-0.2,0.1-0.3,0.2-0.4,0.3c-0.4,0.4-0.9,0.3-0.7-0.6c0.2-1,0.7-2.9,0.9-3.9c0.5-2.2,0.9-4.4,1.2-6.7
		c0.2-1.4,0.7-2.9,0.3-4.2c-0.2-0.5-0.7-0.6-1.2-0.8c-0.8-0.3-1.2-0.9-1.4-1.9c-0.2-0.7-0.3-1.5-0.7-2.1c-0.7-1-1.6-2.3-2.6-3
		c-0.8-0.6-1.6-0.9-2.4-0.3c-1.8,1.2-2.6,1.1-3.3,0.2c-0.3-0.3-0.5-0.6-0.8-1c-0.4-0.6-1.5-0.9-2.7-0.6c-0.8,0.2-1.7,0.7-2.4,1.4
		c-1,1.1-2.4,1.8-3.9,2.5c2.4-0.4,3.6-0.2,5.4-0.2c1.6,0,3.5,0.9,4.8,1.8c1.4,1.1,2,5,2,7c-0.1,4.5,3,6,2.3,9.1
		c-0.9,4-3.2,8.5-3.6,9.4c-1.7,3.8-2.9,6.5-4.1,9.4c-0.1,0.5-0.2,1-0.3,1.5c-0.7,3.2-2.6,6.4-2.2,9.6c0.1,0.8,0.8,1.2,1.5,0.9
		c0.8-0.4,1.3-1.2,1.6-1.6c4.6-7.5,10.2-18.6,18.5-28.7c1-1.2,0.7-1.7,0.4-2.9c-0.1-0.7-0.2-1.6,0-3c0.1-0.7,0.7-2.3,1.2-3.1
		c0.6-0.9,0.6-1.3,0.7-1.7c0.1-0.5,0.3-1.2,1.9-2.7c0.4-0.4,1.3-0.7,2.2-0.4c1.4,0.5,3.3,2.4,3.3,2.4s1.1,0.9,1.4,1.2
		c1,0.9,2,2.2,2.4,3.3c1,2.8,1.3,7,1.6,9.9c0.1,1.5,0.1,3.2,0,4.3c0,1.9,0.1,4.4,0.2,5.6c0.3,3.6-0.6,4.5-0.9,7.9
		c-0.2,1.8-0.2,3.7-0.7,5.1c-0.3,0.8-0.5,1.4-0.3,2c0.3,0.8,1.1,0.9,1.9,0.5c0.9-0.4,1.9-1.2,2.6-2.2c0.4-0.6,0.8-1.3,0.9-2
		c0.1-0.6,0.1-1.1,0.2-1.7c0.3-1.6,0.7-3,1.2-4.4c1.5-4.5,2.3-8.4-0.1-12.6c-0.4-0.7-0.8-1.3-0.9-1.7c-1.2-2.4-2.4-3.4-1.2-6.1
		c2.1-3.6,1.8-6.8,3.9-9.7c0.7-0.9,1.8-1.2,2.7-1c0.9,0.3,1.9,1,2.3,1.8c0.5,1,1.2,1.9,1.8,2.8c0.7,1.1,1.3,2.4,1.2,4
		c-0.3,2.9-0.4,6-1.8,9.2c-0.2,0.5-0.7,1-1.1,1.4c-1.5,1.5-1.8,3.2-2,5c-0.1,1.4-0.1,2.9-0.5,4.3c-1.1,4.3-1,8.6-0.8,11.9
		c0.1,0.9,0.4,1.6,0.7,2c0.7,0.7,1.6,0.8,2.4,0.4c0.9-0.4,1.5-1.2,1.6-2.3c0.1-0.8,0-1.5-0.2-2.1c-0.3-1.1-1.1-1.9-1.2-3.1
		c-0.1-0.4-0.2-0.9,0.1-1.4c0.1-0.3,0.4-0.4,0.6-0.6c3.3-3.9,4.6-9.8,6-13.3c0.3-0.7,1.6-3.3,2-4c1.2-2.2,2.2-3.7,3.3-4.6
		c0.4-0.3,0.9-0.6,1.4-0.8c0.6-0.2,0.9-0.7,1.2-0.9c0.5-0.4,1.1-0.1,1.1,0.5c0,0.5-0.2,1.3-0.9,2.3c-1.6,2.2-1.6,1.7-2.6,4.2
		c-0.3,0.8-1.6,1.2-2.2,2c-1.7,2.2-3.2,5-2.7,10.7c0.1,0.6,0.3,0.6,0.7,0.3c0.8-0.7,2-2.9,2.2-3.2c0.5-0.9,1.4-3,1.9-4.5
		c0.3-0.8,1.1-2,1.5-2.7c1.8-2.4,1.2-2.9,2.4-5.1c0.5-0.9,0.9-1.2,1.2-1.4c0.3-0.2,0.6-0.4,0.8-0.6c0.4-0.4,0.7-0.9,1.3-1.2
		c0.6-0.4,0.9-0.2,1,0.1c0.1,0.1,0.1,0.3,0.1,0.5c0,0.6,0.9,1.9,1.8,2.9c0.9,1,1.2,2.7,0.9,3.7c-0.3,1,0.7,2.3,1.4,3.5
		c0.3,0.6,0,1-0.6,1.2c-1.6,0.6-6.1,2.5-9.5,4.6c-3.5,2.2-3.2,2.5-5.1,5.8c-0.6,1.1-3,4.3-3.5,5.3c-0.6,1.5,0.2,2.3,1.5,2.4
		c1.3,0.1,3.1-0.5,4.6-1.8c5-3.8,12.2-11.3,14.9-16c0.3-0.6,1.4-2.9,2-3.6c0.6-0.8,1.4-1.6,2.2-2.4c0.6-0.6,2.7-2.2,3.4-2.7
		c1.7-1.1,3.5-2.4,5.1-3.5c0.4-0.3,1.1-0.6,1.8-1c0.7-0.3,1.4,0.1,0.5,0.8c-2.7,2-7,6.1-9.4,9.2c-0.9,1.1-2.7,4.7-3.3,5.7
		c-2.6,4.8-5,8.9-7.4,11.3c-0.4,0.4-0.8,1-1,1.2c-0.3,0.6-0.5,1-0.6,1.4c-0.1,0.8,0.5,1.1,1.3,0.9c0.9-0.2,2.2-0.8,3.1-1.7
		c1.1-0.9,2.3-2.7,3.5-4.5c1.5-2.3,3.5-4.9,4.7-6.2c1.6-1.7,3.6-3.7,5.6-5.5c0.9-0.8,1.7-1.6,2.6-2.4c0.3-0.3,1.7-1.6,2.8-2.2
		c0.8-0.5,1.8-0.9,2.9-1.4c3.5-1.5,6.8-4.6,10.4-5.8c3.4-1.1,7.8-2.2,10.3-2.7c0.5-0.1,0.5,0.1,0.3,0.2s-0.4,0.2-0.6,0.3
		c-1.6,0.9-3.4,1.8-4.6,2.8c-0.9,0.7-1.3,1.5-2,2.2c-1.2,1.1-2.8,1.8-4.2,2.7c-2.6,1.7-3.3,3-5.9,5.3c-5,4.6-12.8,11-15.5,21.1
		c-1.3,4.9-0.3,7.2,5.9,7.8c5.7,0.6,15.6,0.8,24.3,0.9c4.7-0.1,9.7-0.1,14.8-0.2c3.4-0.2,5.6-0.5,7.8-1.8c1.9-1.2,3-1.9,3.5-2.8
		c1.3-2,3.8-2.9,6.8-1.8c2.6,1,5.5,1.6,10.6,3.2c2.3,0.7,6.4,1.6,9.8,2c2.2,0.2,3.6-0.8,3.3-2.3c-0.4-1.6-1.9-4.2-3.7-6.5
		c-0.6-0.8-0.2-0.9,0.7-0.4c3.7,1.9,11.5,5.3,15.9,7.1c1.3,0.6,10.8,3.4,16.1,3.5c2.8,0.1,5.1,0.2,7.2,0.3
		C480,100.1,478.3,99,477.3,98.4z M215.3,97.4c1.1-1.3,1.9-5.5,1.9-6.7c0-1.4,0.7-3.6,1.6-5.9c0.4-1,1-2.1,1.5-3.2
		c-1.1-1-2.5-2-2-4.6c-0.6,0.9-1.1,1.9-1.4,2.2c-2.1,2.9-5.2,7.2-7.5,10.2c-1.2,1.7-3,4.3-3.5,5.5c-0.9,1.8-0.8,3-0.1,3.9
		c0.6,0.7,1.7,1.1,2.9,1.2C211,100.3,213.8,99.4,215.3,97.4z M254.5,16.3c0.1,0,0.2,0,0.3,0.1c-1.4-1-2.4-2.1-3-3.3
		c-0.4-0.8-0.5-1.8-0.5-2.6c0-0.4,0-1,0.1-1.4c-0.4,0.1-0.8,0.2-1.2,0.3c-0.7,0.2-1.5,0.7-2,1.4c-0.4,0.5-0.7,1.2-0.9,1.7
		c0,0,3.9,2.5,4.9,3.1C252.8,15.7,254,16.1,254.5,16.3z M115.9,85.7c-3.1,1.7-6.1,3.5-9.4,4.7c-2.6,1-5.9,1.6-8.3,0
		c-0.8,0.9-1.6,1.9-2.2,3c-0.9,1.7-0.1,2.7,1,3.4c1,0.6,1.8,1.1,2.4,1.4c1.5,0.8,3.3,1,4.9,1.2c3.8,0.5,7.2-0.3,10.5-2.2
		c5.3-3,6.6-5.3,7.4-7.4c0.4-1.2,0.7-2.4,1.4-3.7c0.6-1,1.8-2.1,2.1-2.3c1.3-0.7,1.8-0.1,2,0.9c0.2,1.2,0.2,2.6-0.5,3.6
		c-0.8,1.1-1.3,2.5-1.8,3.8c-0.4,1-1.5,2.8-2.8,4.4c-0.6,0.7-0.6,1.4-0.6,1.8c0,1.3,1.2,1.2,2.1,1.1c3.2-0.1,5.6-1.8,6.6-3.6
		c0.4-0.6,0.8-1.1,1.2-1.3c0.9-0.6,1.8-0.3,1.8,0.7c0.1,1.3,0.5,1.6,1.3,2.4c0.4,0.3,0.8,0.8,1.3,1.4c1.4,1.6,3.3,1.8,5.2,1.5
		c2.6-0.5,5.2-1.9,6.5-2.3c4.8-1.4,15.1-0.2,20-0.9c2.1-0.3,3.6-0.8,4.5-1.4c1.2-0.8,1.2-1.8-0.5-2.3s-2.9-0.4-5.1-0.3
		c-2.3,0.1-5.1,0.3-5.7,0.3c-2.4,0-5.6-0.3-8.5-1.6c-1.9-0.9-5.2-1.6-5.6-5.9c0-0.5-0.3-1.1-1.2-0.3c-1.6,1.4-3.1,3.8-5.1,4.6
		c-2.4,1-4.5,1.7-5.9,1.8s-2.2-0.3-2.1-1.5c0.1-0.7,0.4-1.8,1.2-3.1c1.7-3.1,4.9-5.1,7.3-7.7l8.6-9.6l5.5-5.9c0,0,4.6-4.6,5.8-5.6
		c4.2-3.8,8.5-7.6,12.7-11.4c0,0,3.5-3.1,4.8-4.3c1.2-1.2,1.7-1.7,2.2-2.4c0.6-0.8,1.8-2.4,2.5-3.2c0.3-0.3,0.8-0.9,1.3-1.2
		c1.8-1.2,3.4-2.3,5.1-3.5c0.9-0.6,2.1-1.1,2.5-1.3c0.8-0.3,1.6-0.5,2.4-0.8c0.7-0.3,1.2-0.6,1.8-1.6c0.9-1.5,1.8-3.1,2.7-4.6
		c-5.5,1.6-8.9,4-12.4,6c-1.6,0.9-3.2,1.7-5.1,2.2c-1.6,0.5-3.4,1.3-5.2,2.2c-2.3,1.2-4.7,2.5-6.6,3.5c-0.5,1.5-0.9,2.3-1.5,3.5
		c-0.1,0.2,0,0.3,0.1,0.2c3.4-2,7.5-4.2,9.6-5c0.3-0.1,0.5-0.2,0.7-0.3c0.6-0.2,0.6-0.1,0.3,0.4c-0.9,1.5-16.4,14.1-17.6,15.7
		c-5.4,5.6-10.9,11.1-16.3,16.7c-3.3,3.1-6.7,6.2-10,9.4c-0.5,0.5-1.4,1.6-1.6,1.8c-0.7,0.7-0.9,0.3-0.8-0.5
		c0.1-0.7,0.3-1.7,0.6-2.4c2.2-5.4,6.9-11.3,7.7-12.5c0.1-0.1,0-0.1-0.1-0.1c-5.2,4.2-10,8.5-15.2,12.6
		C122.9,80.2,119,83.7,115.9,85.7z M203.8,71.2c4-2.9,10.3-6.7,13.7-9.3c0.8-0.7,1.5-1.2,1.9-1.7c0.8-1.1,0.7-2.1,1.6-3
		c0.6-0.6,1.7-1.2,2.7-1.8c1.2-0.7,2.6-1.5,3.7-2.1c1-0.6,1.8-1.2,2.4-1.6c2.2-1.6,5.9-4.1,7.5-8.5c0.4-1.1,0-2.6,2.8-5.9
		c1.3-1.5,2.3-2.9,3.1-3.9c1.6-2,3.1-3.5,5-4.9c1.5-1.1,3.2-2.1,4.6-3.1c1.3-0.9,3.7-2.2,5.9-3.9c-1,0.1-2.3,0.4-3,0.5
		c-4.3,0.9-6.2,2.2-7,2.8c-3,2.1-7.6,3.4-9.7,3.8l0,0c-2.6,2.6-4.7,4-5.9,4.5c-3.3,1.2-6.7,2.4-8.9,2.4c-1.4,0-2.7,0.4-3.9,0.9
		c-1.9,0.9-3.5,2.3-4.3,3.4s-0.2,1.6,1.2,1.5c2.1-0.3,9.3-2.1,12.2-2.3c0.8-0.1,1.6,0.7-0.6,1.7c-4.6,2-13,7.2-14.2,8.2
		c-3.6,3.1-5.1,5.6-5.1,5.7c-1.5,2.8-3.3,4.1-4.9,4.8c-2.7,1-5.7,2.4-8,3.8c-1.8,1.1-3.3,2.5-3.2,4.5c0.3,4.9-2.3,8.5-5.4,8.6
		c-0.8,0-3.3,0-5.6,0.1c-3.5,0.2-5.8,1.4-6.9,5.1c-1.8,6.4,0.1,5.8,4.9,5.4c5.9-0.8,7.3,0.7,13.6-6C197,77.2,201.2,73,203.8,71.2z
		 M85,80.4c-3.8,1.8-9.4,4.7-14.9,8.3c-4.1,2.7-9.3,7.9-13.3,12.1c3.9-0.1,7.5-0.3,10.2-0.3c4.6,0,8.6-1.2,11.4-3.1
		c5-3.4,7.7-5.6,10.5-6.8s6.2-2.8,9-4.6c2.2-1.4,3.8-2.7,5.5-4.6c1.8-2,6.1-6.7,7.2-8l0,0l0,0c-5.1,1.8-10.5,2.7-15.1,3.5
		C93.6,77.1,89.2,78.4,85,80.4z"/>
</g>
<g id="SQ50_00000035508596900534480420000003322068837808978824_">
	<g id="salomon_00000108275650044036751550000013309984872795807165_">
		<path id="salomon-logo" class="st2" d="M257.6,316.3h12.1l5.1,25.5H266l-0.8-4.7h-9.8l-2.1,4.7h-8.8L257.6,316.3z M263,321.5
			l-5.4,10.7h7.1L263,321.5L263,321.5z M277,341.7h21l0.9-6.1h-12.5l2.9-19.3h-8.5L277,341.7z M352.5,335.4L352.5,335.4l-2.3-19.1
			h-10.8l-9.4,25.5h8.3l6.2-18.4h0.1l2,18.4h10l7.6-17.9h0.1l1.3,17.9h8.5l-2.2-25.5h-11.1L352.5,335.4z M431.1,334.9L431.1,334.9
			l-8.1-18.7h-11.5l-3.8,25.5h8.1l2.5-18.3h0.1l7.6,18.3H438l3.8-25.5h-7.6L431.1,334.9z M303.9,340.3c-2.3-1.4-3.4-3.7-2.7-7.6
			l1.3-7.3c0.7-3.9,2.7-6.3,5.5-7.7c2.8-1.4,6.5-1.6,10.7-1.6c4.3,0,7.8,0.2,10.1,1.6c2.3,1.4,3.4,3.7,2.7,7.7l-1.3,7.3
			c-0.7,3.9-2.7,6.3-5.5,7.6c-2.8,1.4-6.5,1.6-10.8,1.6C309.8,341.9,306.2,341.7,303.9,340.3 M321.8,332.2l1.2-6.1
			c0.8-4-0.7-4.4-5.2-4.4c-4.3,0-6.1,0.4-6.9,4.4l-1.2,6.1c-0.8,4.1,0.8,4.4,5.2,4.4C319.2,336.6,320.9,336.2,321.8,332.2
			 M379.2,340.3c-2.3-1.4-3.4-3.7-2.7-7.6l1.3-7.3c0.7-3.9,2.7-6.3,5.5-7.7c2.8-1.4,6.5-1.6,10.7-1.6c4.3,0,7.8,0.2,10.1,1.6
			c2.3,1.4,3.4,3.7,2.7,7.7l-1.3,7.3c-0.7,3.9-2.7,6.3-5.5,7.6c-2.8,1.4-6.5,1.6-10.8,1.6C385.1,341.9,381.6,341.7,379.2,340.3
			 M397.1,332.2l1.2-6.1c0.8-4-0.7-4.4-5.2-4.4c-4.3,0-6.1,0.4-6.9,4.4l-1.2,6.1c-0.8,4.1,0.8,4.4,5.2,4.4
			C394.6,336.6,396.3,336.2,397.1,332.2 M227.8,316c-5.2,0-6.6,0.9-7.4,5l-0.5,2.4c-0.5,2.4,0.2,3.8,3.8,5.6l9.1,4.5
			c2.7,1.3,2.9,1.6,2.7,2.5c-0.1,0.8-0.4,1-1.7,1.1c-1,0.1-2.5,0.1-3.9,0.1c-2.1,0-3.2,0-4-0.2c-1.1-0.2-1.3-0.7-1.2-1.4l0.5-2.5
			h-7.6l-0.7,3.6c-0.7,3.6,1.1,5.3,5.8,5.3H237c5.1,0,6.3-1.5,7.1-5.4l0.5-2.5c0.4-1.9,0.1-2.6-2.4-3.8l-12.3-6.1
			c-2-1-2.1-1.4-2-2.3c0.1-0.5,0.4-0.8,1.8-1c0.8-0.1,2.4-0.1,3.9-0.1c0.9,0,2.1,0,2.8,0.1c2.2,0.1,2.5,0.5,2.2,1.9l-0.4,2.2h7.9
			l0.8-4c0.7-3.3-0.5-5-4.8-5L227.8,316L227.8,316z"/>
		<path id="Presented_by_00000139276011874018603770000007506613792315433892_" class="st2" d="M100.4,334.8h2.6v-4.2h1.2
			c1,0,1.8-0.1,2.5-0.4s1.2-0.7,1.6-1.2c0.4-0.5,0.5-1.2,0.5-2.1c0-0.8-0.2-1.5-0.5-2.1c-0.4-0.5-0.9-0.9-1.6-1.2
			c-0.7-0.3-1.5-0.4-2.5-0.4h-3.8V334.8L100.4,334.8z M103,325.1h1.2c0.4,0,0.7,0,1,0.1s0.5,0.2,0.6,0.4c0.2,0.2,0.3,0.3,0.3,0.6
			c0.1,0.2,0.1,0.5,0.1,0.8c0,0.4-0.1,0.8-0.2,1c-0.1,0.3-0.3,0.5-0.6,0.7s-0.7,0.2-1.2,0.2H103V325.1L103,325.1z M116.8,334.8h2.4
			v-0.7l-2.4-4.3c0.6-0.3,1-0.7,1.4-1.2c0.3-0.5,0.5-1.2,0.5-1.9c0-0.7-0.2-1.4-0.5-1.9s-0.8-0.9-1.5-1.1c-0.7-0.3-1.5-0.4-2.4-0.4
			h-3.9v11.5h2.6v-4.5h1.5L116.8,334.8L116.8,334.8z M112.8,325h1.2c0.5,0,0.8,0.1,1.1,0.2s0.5,0.3,0.6,0.6c0.1,0.3,0.2,0.6,0.2,0.9
			c0,0.4-0.1,0.7-0.2,1c-0.1,0.3-0.3,0.5-0.6,0.6s-0.6,0.2-1.1,0.2h-1.2V325L112.8,325z M120.7,334.8h7.8V333h-5.2v-3.2h3.6V328
			h-3.6v-2.9h5.1v-1.9h-7.6v11.6H120.7z M133.2,334.9c0.9,0,1.7-0.1,2.4-0.4c0.6-0.3,1.1-0.7,1.5-1.2c0.3-0.5,0.5-1.2,0.5-1.9
			c0-0.5-0.1-1-0.2-1.4c-0.1-0.4-0.4-0.7-0.6-1c-0.3-0.3-0.7-0.5-1.1-0.7c-0.5-0.2-1-0.4-1.6-0.5c-0.5-0.1-0.8-0.2-1.1-0.4
			c-0.3-0.1-0.6-0.3-0.7-0.5c-0.2-0.2-0.2-0.4-0.2-0.7c0-0.5,0.2-0.8,0.5-1s0.8-0.3,1.4-0.3c0.5,0,0.9,0.1,1.3,0.2
			c0.4,0.1,0.7,0.3,1,0.6h0.8v-1.9c-0.4-0.2-0.8-0.4-1.4-0.5c-0.5-0.1-1.2-0.2-1.8-0.2s-1.1,0.1-1.6,0.2s-0.9,0.4-1.3,0.6
			c-0.4,0.3-0.6,0.6-0.8,1s-0.3,0.9-0.3,1.5c0,0.5,0.1,0.9,0.2,1.3c0.1,0.4,0.3,0.7,0.6,0.9c0.3,0.3,0.6,0.5,1,0.7s0.9,0.4,1.4,0.5
			c0.3,0.1,0.6,0.2,0.9,0.3c0.3,0.1,0.6,0.2,0.8,0.3c0.2,0.1,0.4,0.3,0.5,0.5s0.2,0.4,0.2,0.7c0,0.4-0.2,0.8-0.5,1s-0.9,0.4-1.6,0.4
			c-0.5,0-0.8-0.1-1.2-0.2c-0.3-0.1-0.6-0.2-0.9-0.4c-0.3-0.2-0.5-0.3-0.6-0.5h-0.8v2c0.3,0.2,0.7,0.4,1,0.5
			c0.4,0.1,0.7,0.2,1.2,0.3C132.2,334.9,132.7,334.9,133.2,334.9L133.2,334.9z M139,334.8h7.8V333h-5.2v-3.2h3.6V328h-3.6v-2.9h5.1
			v-1.9H139V334.8L139,334.8z M148.3,334.8h2.1v-8.4l0,0l4.8,8.4h2.3v-11.5h-2.2v7.4l0,0l-4.3-7.4h-2.9v11.5H148.3z M164.8,334.8
			v-9.7h3.2v-1.8h-8.9v1.8h3.1v9.7H164.8L164.8,334.8z M169.4,334.8h7.8V333H172v-3.2h3.6V328H172v-2.9h5.1v-1.9h-7.6v11.6H169.4z
			 M178.8,334.8h3.6c1.3,0,2.4-0.2,3.3-0.6c0.9-0.4,1.6-1.1,2.1-1.9c0.5-0.9,0.7-1.9,0.7-3.3c0-1.3-0.2-2.4-0.7-3.2
			c-0.5-0.8-1.2-1.5-2.1-1.9c-0.9-0.4-2-0.6-3.3-0.6h-3.6V334.8L178.8,334.8z M181.3,332.9V325h1c0.8,0,1.5,0.1,2,0.4
			s0.9,0.7,1.1,1.3c0.3,0.6,0.4,1.3,0.4,2.3c0,0.9-0.1,1.7-0.4,2.3c-0.3,0.6-0.6,1-1.2,1.3c-0.5,0.3-1.2,0.4-2,0.4L181.3,332.9
			L181.3,332.9z M193.1,334.8h4.1c0.9,0,1.7-0.1,2.4-0.4c0.6-0.3,1.1-0.6,1.5-1.1c0.3-0.5,0.5-1.1,0.5-1.8c0-0.5-0.1-1-0.3-1.4
			s-0.5-0.7-0.9-0.9c-0.4-0.2-0.8-0.4-1.3-0.5v-0.1c0.4-0.1,0.8-0.2,1.1-0.4c0.3-0.2,0.5-0.5,0.7-0.8s0.3-0.7,0.3-1.2
			c0-1-0.3-1.8-1-2.3s-1.7-0.7-3.1-0.7h-4V334.8L193.1,334.8z M195.6,332.9v-3.3h1.5c0.6,0,1.1,0.2,1.3,0.4c0.3,0.3,0.4,0.7,0.4,1.2
			c0,0.3-0.1,0.6-0.2,0.9c-0.1,0.2-0.3,0.4-0.6,0.6c-0.3,0.1-0.6,0.2-1,0.2L195.6,332.9L195.6,332.9z M195.6,327.9V325h1.4
			c0.5,0,1,0.1,1.2,0.4c0.3,0.2,0.4,0.6,0.4,1c0,0.5-0.1,0.9-0.4,1.1c-0.3,0.2-0.7,0.4-1.2,0.4H195.6L195.6,327.9z M208.2,334.8
			v-4.5l3.3-6.3v-0.7h-2l-2.5,4.8l0,0l-2.6-4.8H202v0.7l3.6,6.3v4.5H208.2L208.2,334.8z"/>
	</g>
	<path id="_x35_0M_50K_50_x2F_50_23K_00000047750600486512814800000000619974616385292462_" class="st3" d="M47.8,288.3
		c0-1.7-0.3-3.2-0.7-4.4c-0.5-1.2-1.2-2.3-2.1-3.1c-0.9-0.8-1.9-1.4-3.1-1.8s-2.5-0.6-3.9-0.6c-1,0-1.9,0.1-2.7,0.2
		c-0.7,0.1-1.4,0.3-1.9,0.6c-0.5,0.3-1,0.6-1.3,0.9H32v-4.4h14V267H23.4v19.8H30c0.3-0.3,0.6-0.5,1.1-0.7s1.1-0.3,1.8-0.3
		c0.8,0,1.4,0.2,1.9,0.5c0.4,0.4,0.7,0.9,0.7,1.7c0,0.6-0.1,1-0.3,1.4c-0.2,0.4-0.6,0.7-1.1,0.9c-0.5,0.2-1.3,0.3-2.2,0.3
		c-1,0-1.9-0.1-2.7-0.4c-0.7-0.2-1.4-0.5-1.9-0.9h-4.5v7.6c0.9,0.4,1.8,0.8,2.8,1.1c1,0.3,2.1,0.5,3.4,0.7c1.3,0.1,2.7,0.2,4.3,0.2
		c3.2,0,5.9-0.4,8.1-1.3s3.8-2.1,5-3.7C47.2,292.5,47.8,290.5,47.8,288.3L47.8,288.3z M64.7,299.1c2.2,0,4.3-0.4,6.2-1.1
		c1.9-0.7,3.5-1.8,4.8-3.2c1.4-1.4,2.4-3.1,3.2-5.1s1.1-4.3,1.1-7c0-2.1-0.3-4-0.8-5.7s-1.2-3.2-2.2-4.5c-0.9-1.3-2-2.4-3.3-3.3
		s-2.7-1.6-4.2-2c-1.5-0.5-3.2-0.7-4.9-0.7c-1.7,0-3.3,0.2-4.9,0.7c-1.5,0.5-2.9,1.1-4.2,2c-1.3,0.9-2.4,2-3.3,3.3s-1.6,2.8-2.2,4.5
		c-0.5,1.7-0.8,3.6-0.8,5.7c0,2.6,0.4,4.9,1.1,7c0.8,2,1.8,3.7,3.2,5.1c1.4,1.4,3,2.4,4.8,3.2C60.4,298.8,62.4,299.1,64.7,299.1
		L64.7,299.1z M64.7,291c-0.7,0-1.3-0.3-1.8-0.8c-0.4-0.5-0.8-1.4-1-2.6s-0.3-2.7-0.3-4.6s0.1-3.4,0.3-4.5c0.2-1.1,0.5-1.9,1-2.4
		c0.4-0.5,1-0.7,1.8-0.7c0.7,0,1.3,0.2,1.8,0.7c0.4,0.5,0.8,1.3,1,2.4s0.3,2.6,0.3,4.5s-0.1,3.4-0.3,4.6c-0.2,1.2-0.5,2-1,2.6
		C66,290.7,65.4,291,64.7,291L64.7,291z M82.3,298.6H92v-17.7h0.1l5,17.7h6.7l4.9-17.7h0.1v17.7h12v-31.5h-15.5l-3.7,13.4h-0.1
		l-3.6-13.4H82.3L82.3,298.6L82.3,298.6z M178.1,288.3c0-1.7-0.3-3.2-0.7-4.4c-0.5-1.2-1.2-2.3-2.1-3.1c-0.9-0.8-1.9-1.4-3.1-1.8
		c-1.2-0.4-2.5-0.6-3.9-0.6c-1,0-1.9,0.1-2.7,0.2c-0.7,0.1-1.4,0.3-1.9,0.6c-0.5,0.3-1,0.6-1.3,0.9h-0.1v-4.4h14V267h-22.5v19.8h6.6
		c0.3-0.3,0.6-0.5,1.1-0.7s1.1-0.3,1.8-0.3c0.8,0,1.4,0.2,1.9,0.5c0.4,0.4,0.7,0.9,0.7,1.7c0,0.6-0.1,1-0.3,1.4s-0.6,0.7-1.1,0.9
		c-0.5,0.2-1.3,0.3-2.2,0.3c-1,0-1.9-0.1-2.7-0.4c-0.7-0.2-1.4-0.5-1.9-0.9h-4.5v7.6c0.9,0.4,1.8,0.8,2.8,1.1c1,0.3,2.1,0.5,3.4,0.7
		c1.3,0.1,2.7,0.2,4.3,0.2c3.2,0,5.9-0.4,8.1-1.3c2.2-0.9,3.8-2.1,5-3.7C177.5,292.5,178.1,290.5,178.1,288.3L178.1,288.3z
		 M195,299.1c2.2,0,4.3-0.4,6.2-1.1c1.9-0.7,3.5-1.8,4.8-3.2c1.4-1.4,2.4-3.1,3.2-5.1c0.8-2,1.1-4.3,1.1-7c0-2.1-0.3-4-0.8-5.7
		s-1.2-3.2-2.2-4.5c-0.9-1.3-2-2.4-3.3-3.3s-2.7-1.6-4.2-2c-1.5-0.5-3.2-0.7-4.9-0.7s-3.3,0.2-4.9,0.7c-1.5,0.5-2.9,1.1-4.2,2
		s-2.4,2-3.3,3.3c-0.9,1.3-1.7,2.8-2.2,4.5s-0.8,3.6-0.8,5.7c0,2.6,0.4,4.9,1.1,7c0.8,2,1.8,3.7,3.2,5.1s3,2.4,4.8,3.2
		C190.7,298.8,192.7,299.1,195,299.1L195,299.1z M195,291c-0.7,0-1.3-0.3-1.8-0.8c-0.4-0.5-0.8-1.4-1-2.6s-0.3-2.7-0.3-4.6
		s0.1-3.4,0.3-4.5s0.5-1.9,1-2.4c0.4-0.5,1-0.7,1.8-0.7c0.7,0,1.3,0.2,1.8,0.7c0.4,0.5,0.8,1.3,1,2.4s0.3,2.6,0.3,4.5
		s-0.1,3.4-0.3,4.6s-0.5,2-1,2.6C196.3,290.7,195.7,291,195,291L195,291z M212.6,298.6H225v-9.7l1.2-1.4l5.9,11.1h12.8v-2l-9.3-17.2
		l8.2-10.3v-2h-11.2l-7.6,10.3v-10.3h-12.4V298.6L212.6,298.6z M298.9,288.3c0-1.7-0.3-3.2-0.7-4.4c-0.5-1.2-1.2-2.3-2.1-3.1
		c-0.9-0.8-1.9-1.4-3.1-1.8s-2.5-0.6-3.9-0.6c-1,0-1.9,0.1-2.7,0.2c-0.7,0.1-1.4,0.3-1.9,0.6s-1,0.6-1.3,0.9H283v-4.4h14V267h-22.5
		v19.8h6.6c0.3-0.3,0.6-0.5,1.1-0.7s1.1-0.3,1.8-0.3c0.8,0,1.4,0.2,1.9,0.5c0.4,0.4,0.7,0.9,0.7,1.7c0,0.6-0.1,1-0.3,1.4
		c-0.2,0.4-0.6,0.7-1.1,0.9c-0.5,0.2-1.3,0.3-2.2,0.3c-1,0-1.9-0.1-2.7-0.4c-0.7-0.2-1.4-0.5-1.9-0.9h-4.5v7.6
		c0.9,0.4,1.8,0.8,2.8,1.1c1,0.3,2.1,0.5,3.4,0.7c1.3,0.1,2.7,0.2,4.3,0.2c3.2,0,5.9-0.4,8.1-1.3s3.8-2.1,5-3.7
		C298.3,292.5,298.8,290.5,298.9,288.3L298.9,288.3z M315.8,299.1c2.2,0,4.3-0.4,6.2-1.1c1.9-0.7,3.5-1.8,4.8-3.2
		c1.4-1.4,2.4-3.1,3.2-5.1c0.8-2,1.1-4.3,1.1-7c0-2.1-0.3-4-0.8-5.7s-1.2-3.2-2.2-4.5c-0.9-1.3-2-2.4-3.3-3.3s-2.7-1.6-4.2-2
		c-1.5-0.5-3.2-0.7-4.9-0.7c-1.7,0-3.3,0.2-4.9,0.7c-1.5,0.5-2.9,1.1-4.2,2c-1.3,0.9-2.4,2-3.3,3.3s-1.7,2.8-2.2,4.5
		s-0.8,3.6-0.8,5.7c0,2.6,0.4,4.9,1.1,7c0.8,2,1.8,3.7,3.2,5.1c1.4,1.4,3,2.4,4.8,3.2C311.4,298.8,313.5,299.1,315.8,299.1
		L315.8,299.1z M315.8,291c-0.7,0-1.3-0.3-1.8-0.8c-0.4-0.5-0.8-1.4-1-2.6s-0.3-2.7-0.3-4.6s0.1-3.4,0.3-4.5c0.2-1.1,0.5-1.9,1-2.4
		c0.4-0.5,1-0.7,1.8-0.7c0.7,0,1.3,0.2,1.8,0.7c0.4,0.5,0.8,1.3,1,2.4s0.3,2.6,0.3,4.5s-0.1,3.4-0.3,4.6c-0.2,1.2-0.5,2-1,2.6
		C317,290.7,316.5,291,315.8,291L315.8,291z M330,300.8h4.6l10.3-33.5v-2.1h-4.6L330,298.7V300.8L330,300.8z M370.6,283.8
		c-0.5-1.2-1.2-2.3-2.1-3.1c-0.9-0.8-1.9-1.4-3.1-1.8s-2.5-0.6-3.9-0.6c-1,0-1.9,0.1-2.7,0.2c-0.7,0.1-1.4,0.3-1.9,0.6
		c-0.5,0.3-1,0.6-1.3,0.9h-0.1v-4.4h14v-8.7H347v19.8h6.6c0.3-0.3,0.6-0.5,1.1-0.7s1.1-0.3,1.8-0.3c0.8,0,1.4,0.2,1.9,0.5
		c0.4,0.4,0.7,0.9,0.7,1.7c0,0.6-0.1,1-0.3,1.4c-0.2,0.4-0.6,0.7-1.1,0.9c-0.5,0.2-1.3,0.3-2.2,0.3c-1.1,0-1.9-0.1-2.7-0.4
		c-0.7-0.2-1.4-0.5-1.9-0.9h-4.5v7.6c0.9,0.4,1.8,0.8,2.8,1.1c1,0.3,2.1,0.5,3.4,0.7s2.7,0.2,4.3,0.2c3.2,0,5.9-0.4,8.1-1.3
		s3.8-2.1,5-3.7C371.6,291.3,371.8,287,370.6,283.8L370.6,283.8z M394.4,298.1c1.9-0.7,3.5-1.8,4.8-3.2c1.4-1.4,2.4-3.1,3.2-5.1
		c0.7-2,1.1-4.3,1.1-7c0-2.1-0.3-4-0.8-5.7s-1.2-3.2-2.2-4.5c-0.9-1.3-2-2.4-3.3-3.3s-2.7-1.6-4.2-2c-1.5-0.5-3.2-0.7-4.9-0.7
		c-1.7,0-3.3,0.2-4.9,0.7c-1.5,0.5-2.9,1.1-4.2,2c-1.3,0.9-2.4,2-3.3,3.3s-1.6,2.8-2.2,4.5c-0.5,1.7-0.8,3.6-0.8,5.7
		c0,2.6,0.4,4.9,1.1,7c0.7,2,1.8,3.7,3.2,5.1c1.4,1.4,3,2.4,4.8,3.2C385.8,299.5,390.6,299.5,394.4,298.1L394.4,298.1z M386.5,290.2
		c-0.4-0.5-0.8-1.4-1-2.6s-0.3-2.7-0.3-4.6s0.1-3.4,0.3-4.5c0.2-1.1,0.5-1.9,1-2.4c0.4-0.5,1-0.7,1.8-0.7c0.7,0,1.3,0.2,1.8,0.7
		c0.4,0.5,0.8,1.3,1,2.4s0.3,2.6,0.3,4.5s-0.1,3.4-0.3,4.6c-0.2,1.2-0.5,2-1,2.6C389.1,291.3,387.3,291.3,386.5,290.2L386.5,290.2z
		 M457.9,289.8h-10l3.8-2.8c1.1-0.8,2-1.6,2.9-2.4c0.8-0.8,1.6-1.6,2.1-2.4c0.6-0.8,1-1.7,1.3-2.6c0.3-0.9,0.5-1.9,0.5-3
		c0-2.3-0.5-4.3-1.5-5.8s-2.4-2.6-4.3-3.3c-1.9-0.7-4.2-1.1-6.9-1c-1.7,0-3.3,0.1-4.7,0.3c-1.4,0.2-2.7,0.5-3.8,0.9
		c-1.1,0.4-2.1,0.8-3,1.3v8.1h5.2c0.4-0.4,0.9-0.8,1.6-1.1c0.6-0.3,1.4-0.4,2.2-0.4c0.9,0,1.5,0.2,2,0.5c0.4,0.3,0.6,0.8,0.6,1.3
		s-0.1,0.9-0.4,1.4s-0.7,1-1.2,1.5s-1.2,1.1-2,1.8l-8.5,7.4v9H458L457.9,289.8L457.9,289.8z M478.1,298c2.2-0.7,3.8-1.8,4.9-3.2
		c1.1-1.4,1.7-3,1.7-5c0-2.1-0.6-3.8-1.7-5c-1.1-1.2-2.9-1.9-5.3-2.2v-0.2c2.1-0.4,3.7-1.3,4.8-2.5s1.6-2.9,1.6-5.1
		c0-1.4-0.3-2.7-1-3.7c-0.6-1.1-1.5-1.9-2.6-2.6s-2.5-1.2-4-1.5s-3.2-0.5-5.1-0.5c-2.3,0-4.4,0.2-6.3,0.6c-1.9,0.4-3.5,1-4.8,1.7
		v7.2h4.5c0.5-0.2,1.1-0.4,1.8-0.6s1.5-0.2,2.4-0.2s1.6,0.2,2.1,0.6s0.7,0.9,0.8,1.5c0,0.4-0.1,0.7-0.3,1.1
		c-0.2,0.3-0.6,0.6-1.1,0.7c-0.5,0.2-1.1,0.3-1.8,0.3H466v7.2h3.1c1.1,0,1.9,0.2,2.4,0.5c0.5,0.4,0.7,0.9,0.7,1.6
		c0,0.5-0.2,0.9-0.4,1.2c-0.3,0.3-0.7,0.6-1.2,0.7c-0.5,0.2-1.1,0.2-1.7,0.2c-1.1,0-2-0.1-2.8-0.3c-0.8-0.2-1.4-0.4-1.9-0.8h-4.5
		v7.2c0.8,0.4,1.6,0.7,2.6,1s2.1,0.5,3.4,0.7C469.3,299.4,474.5,299.3,478.1,298L478.1,298z M486.5,298.6H499v-9.7l1.2-1.4l5.9,11.1
		h12.8v-2l-9.3-17.2l8.2-10.3v-2h-11.2l-7.6,10.3v-10.3h-12.4V298.6L486.5,298.6z M129.5,282.2l7.6-7.6l7.6,7.6l-7.6,7.6
		L129.5,282.2L129.5,282.2z M249.5,282.2l7.6-7.6l7.6,7.6l-7.6,7.6L249.5,282.2L249.5,282.2z M411.2,282.2l7.6-7.6l7.6,7.6l-7.6,7.6
		L411.2,282.2L411.2,282.2z"/>
	<path id="Squamish50_00000148648423185798265540000008550826576475552393_" class="st0" d="M483,223.7c0,3.8,0.6,7.2,2,10.4
		c1.3,3.2,3.2,5.9,5.7,8.2c2.5,2.3,5.5,4.1,9,5.4s7.3,1.9,11.6,1.9s8.2-0.7,11.7-1.9c3.5-1.3,6.6-3.1,9.1-5.4s4.5-5.1,5.9-8.2
		c1.4-3.2,2-6.6,2-10.4v-35.4c0-3.7-0.7-7.1-2-10.2c-1.4-3.1-3.3-5.8-5.9-8.1c-2.5-2.3-5.6-4.1-9.1-5.4c-3.5-1.3-7.3-1.9-11.7-1.9
		c-4.3,0-8.2,0.7-11.7,1.9c-3.5,1.3-6.5,3.1-9,5.4c-2.5,2.3-4.4,5-5.7,8.1s-2,6.5-2,10.2v35.4H483z M509,188.7
		c0-0.7,0.2-1.3,0.6-1.6c0.4-0.4,1-0.6,1.7-0.6s1.3,0.2,1.6,0.6c0.4,0.4,0.6,1,0.6,1.7v34.4c0,0.8-0.2,1.4-0.7,1.7
		c-0.4,0.4-0.9,0.6-1.6,0.6c-0.7,0-1.3-0.2-1.7-0.6s-0.6-1-0.6-1.7v-34.5H509z M421.9,211.8c0,0.4,0.1,0.7,0.3,0.9
		c0.2,0.1,0.5,0.2,0.8,0.2h23.6c0.4,0,0.7-0.1,0.8-0.8c0.1-2.4,0.8-3.5,2.2-3.5c1.9,0,2.6,1.3,2.6,2.7c0.1,3.5,0.2,8.1,0.1,9.2
		c-0.1,1.7,0,3.9-2.1,3.8c-1.1,0-1.8-0.6-2.1-1.9c-0.2-1.2-0.3-2.8-0.3-3.5c0-0.3-0.1-0.5-0.2-0.7c-0.1-0.1-0.3-0.2-0.6-0.2h-24.4
		c-0.2,0-0.4,0.1-0.5,0.2s-0.2,0.3-0.2,0.6v5.4c0,2.5,0.4,4.9,1.3,7.3c0.8,2.4,2.1,4.7,3.7,6.9c1.6,2.2,3.6,4.1,5.9,5.8
		c2.3,1.7,5,3,8,4s6,1.5,9.6,1.5c4.7,0,8-0.6,11.8-1.9c3.8-1.2,7.1-3.1,9.8-5.6c2.8-2.5,4.9-5.6,6.3-9.3c1.5-3.7,2.2-8,2.3-13
		c0-4.2-0.7-8-2.1-11.5c-1.3-3.5-3.3-6.6-5.8-9.2c-2.5-2.6-5.6-4.6-9.1-6.1s-7.5-2.2-11.8-2.2c-1.7,0-2.9,0.1-4.3,0.4
		c-1.4,0.3-2.6,0.6-3.4,1.1c-0.3,0.1-0.5,0.2-0.6,0.3s-0.2,0.1-0.3,0.1c-0.1,0-0.1,0-0.2,0s-0.1-0.1-0.1-0.3v-4.6
		c0-0.4,0.5-1.1,1.2-1l22.6,1.2c7.7,0.4,14.1-3.6,14.4-11.4l0.4-11.8c0-0.3-0.1-0.5-0.2-0.6c-0.1-0.1-0.4-0.2-0.6-0.2h-57.3
		c-0.7,0-1.3,0.6-1.3,1.4v46.3H421.9z M368.3,247.6c0,0.5,0.2,0.9,0.4,1.2c0.3,0.3,0.6,0.5,1,0.5h18.9c0.3,0,0.5-0.1,0.7-0.4
		c0.2-0.2,0.3-0.5,0.3-0.8v-29.9c0-0.2,0.1-0.5,0.2-0.6c0.1-0.2,0.3-0.3,0.6-0.3h2.6c0.2,0,0.4,0.1,0.5,0.3c0.1,0.2,0.2,0.4,0.2,0.6
		V248c0,0.3,0.1,0.6,0.3,0.8c0.2,0.3,0.4,0.4,0.7,0.4h19.4c0.3,0,0.5-0.2,0.7-0.4c0.2-0.2,0.2-0.5,0.2-0.8v-83.4
		c0-0.3-0.1-0.5-0.3-0.7c-0.2-0.2-0.5-0.3-0.8-0.3h-19.3c-0.3,0-0.5,0.1-0.7,0.3s-0.2,0.4-0.2,0.7v29.8c0,0.2-0.1,0.4-0.3,0.5
		c-0.2,0.2-0.4,0.2-0.7,0.3h-2.3c-0.2,0-0.4-0.1-0.6-0.2c-0.2-0.2-0.2-0.3-0.2-0.6v-29.9c0-0.3-0.1-0.5-0.3-0.7
		c-0.2-0.2-0.4-0.2-0.8-0.2h-19.2c-0.3,0-0.6,0.1-0.8,0.3c-0.2,0.2-0.3,0.5-0.3,0.8L368.3,247.6L368.3,247.6z M309.5,249.3
		c0.4,0,0.7-0.2,1-0.5c0.2-0.3,0.4-0.6,0.4-1v-83.1c0-0.3-0.1-0.6-0.4-0.8c-0.2-0.2-0.6-0.3-1-0.3H290c-0.3,0-0.5,0.1-0.7,0.4
		c-0.2,0.2-0.3,0.5-0.3,0.8v82.8c0,0.5,0.2,0.9,0.4,1.2c0.3,0.3,0.6,0.5,1,0.5H309.5L309.5,249.3z M230.6,249.3
		c0.4,0,0.7-0.1,0.9-0.3c0.2-0.2,0.3-0.5,0.3-0.9v-33.5c0-0.5,0.1-0.8,0.2-1.1c0.1-0.3,0.2-0.4,0.4-0.4c0.2,0,0.4,0.1,0.6,0.4
		s0.4,0.9,0.6,1.9l5.3,32.7c0.1,0.4,0.3,0.7,0.5,0.9c0.2,0.2,0.5,0.3,0.8,0.3h12.9c0.3,0,0.6-0.1,0.8-0.2c0.2-0.1,0.4-0.4,0.5-0.7
		l5.9-35.1c0.2-0.9,0.3-1.5,0.4-1.8s0.2-0.5,0.4-0.5c0.1,0,0.2,0.1,0.3,0.3c0.1,0.2,0.1,0.5,0.1,1v35.8c0,0.4,0.1,0.7,0.4,0.9
		c0.2,0.2,0.5,0.3,0.9,0.3h20.7c0.4,0,0.6-0.1,0.9-0.3c0.2-0.2,0.4-0.5,0.4-0.8v-83.3c0-0.4-0.1-0.7-0.3-0.9
		c-0.2-0.2-0.5-0.3-0.9-0.3h-31.8c-0.3,0-0.6,0.1-0.8,0.4c-0.2,0.2-0.4,0.5-0.4,0.9l-2.7,22.5c0,0.4-0.1,0.7-0.1,0.9
		c-0.1,0.2-0.2,0.3-0.3,0.3c-0.1,0-0.2-0.1-0.3-0.3c-0.1-0.2-0.2-0.5-0.2-0.9l-3.4-22.7c-0.1-0.3-0.2-0.6-0.4-0.8
		c-0.2-0.2-0.5-0.3-0.7-0.3h-30.6c-0.3,0-0.5,0.1-0.7,0.4c-0.2,0.2-0.2,0.5-0.2,0.8v83.5c0,0.2,0.1,0.5,0.3,0.7
		c0.2,0.2,0.4,0.3,0.6,0.3L230.6,249.3L230.6,249.3z M182.1,217.7c0.1,0.3,0,0.6-0.2,0.7c-0.1,0.2-0.5,0.2-1.1,0.3
		c-0.6,0-1.5,0-2.7,0c-0.3,0-0.5-0.1-0.6-0.4c-0.1-0.2-0.2-0.5-0.1-0.8l1.5-10.9c0.1-0.9,0.2-1.6,0.4-2c0.1-0.4,0.3-0.6,0.4-0.6
		c0.2,0,0.3,0.2,0.4,0.7c0.1,0.5,0.2,1.1,0.4,1.9L182.1,217.7L182.1,217.7z M168.4,163.6c-0.3,0-0.6,0.2-0.9,0.5
		c-0.2,0.3-0.4,0.6-0.5,0.9l-15.3,82.4c-0.1,0.6,0,1,0.2,1.4s0.6,0.5,1.2,0.6H172c0.3,0,0.6-0.1,0.9-0.3c0.3-0.2,0.5-0.5,0.6-0.9
		l2.2-16.8c0.1-0.3,0.2-0.6,0.4-0.8c0.2-0.2,0.4-0.3,0.6-0.3h6.2c0.3,0,0.5,0.1,0.7,0.2c0.2,0.2,0.3,0.4,0.4,0.7l2.3,17.1
		c0.1,0.3,0.2,0.6,0.5,0.8c0.3,0.2,0.6,0.3,1,0.3h18.5c0.6,0,1.1-0.3,1.4-0.8s0.4-1.1,0.2-1.7l-15.7-81.7c-0.1-0.4-0.2-0.8-0.5-1
		c-0.3-0.3-0.6-0.4-1-0.4h-22.3V163.6z M105.1,163.6c-0.3,0-0.6,0.1-0.8,0.3s-0.3,0.5-0.3,0.9v61.1c0,3,0.5,5.9,1.6,8.7
		c1,2.8,2.6,5.3,4.6,7.4c2,2.2,4.5,3.9,7.4,5.2c3,1.3,6.3,1.9,10.1,2c3.8,0,7.1-0.7,10.1-1.9c3-1.3,5.4-3,7.5-5.2
		c2-2.2,3.6-4.7,4.6-7.4c1.1-2.8,1.6-5.7,1.6-8.7v-61.2c0-0.4-0.2-0.7-0.4-0.9s-0.5-0.3-0.8-0.3h-19.3c-0.3,0-0.6,0.1-0.9,0.4
		c-0.2,0.2-0.4,0.5-0.4,0.8v58.3c0,0.7-0.2,1.3-0.5,1.7c-0.3,0.4-0.8,0.7-1.5,0.7s-1.2-0.2-1.5-0.7s-0.5-1-0.5-1.8v-58.1
		c0-0.4-0.1-0.7-0.4-0.9c-0.2-0.2-0.5-0.3-0.9-0.3h-19.3V163.6z M93.1,169.8c-4.5-4.4-10.4-6.4-16.6-6.4c-6.2,0-12.1,2-16.6,6.4
		c-5.2,5.2-7,12.6-7.1,19.7v33.8c0,4.4,0.7,8.3,1.9,11.6c1.3,3.3,3,6,5.2,8.2s4.7,3.8,7.5,4.9s5.8,1.6,9,1.6c2-0.1,4.2-0.4,6.1-1
		c0.5-0.1,0.8-0.2,1.2,0.1c0.8,0.5,1.8,1.1,2.6,1.6c3.5,2.3,8.9,3.4,12.8-0.2c1.9-1.7,3.2-3.5,4.6-6.5c0.1-0.3,0.2-0.7-0.1-0.8
		l-7.2-4.4c-0.1,0-0.1-0.1,0-0.2s0.1-0.2,0.2-0.3c0.4-0.6,0.7-1.2,1-1.9c0.8-1.5,1.4-3.4,1.9-5.5c0.5-2.2,0.8-4.9,0.8-7.1
		c0.1-9.8,0.1-19.6,0.1-29.5c0-1.1,0-2.1-0.1-3.2C100.2,183.1,98.9,175.6,93.1,169.8L93.1,169.8z M74.5,189.9c0-0.8,0.2-1.5,0.5-2.1
		s0.8-0.9,1.4-0.9c0.6,0,1.1,0.3,1.4,0.9c0.3,0.6,0.4,1.3,0.4,2v33.1c0,0.9-0.2,1.7-0.4,2.2c-0.3,0.6-0.8,0.8-1.4,0.9
		c-0.7,0-1.2-0.3-1.4-0.8c-0.3-0.6-0.4-1.3-0.4-2.1v-33.2H74.5z M48.5,193.5c0.8,0,1.4-0.5,1.4-1.5c0-8.4-2.9-17.3-7.5-21.8
		c-4.5-4.4-10.6-6.8-17.5-6.8c-5.4,0-10.6,1.6-14.9,5c-5.4,4.3-9.2,11.5-9.2,19.3c0,9.3,5.1,17.4,11.5,22.5
		c3.9,3.1,8.8,6.7,12.2,10.5c5,5.5-0.8,10.5-4,4.2c-1-1.9-1.6-4.3-1.8-6.1c-0.1-1-0.5-1.5-1.4-1.5H1.1c-0.6,0-1.1,0.3-1.1,1.1
		c0,8.2,1.5,16.9,6.5,23s11.9,8.2,19,8.2c7.9,0,15.2-3.6,19.8-10.7c4.3-6.9,6.1-17.3,2.7-25c-2.2-5.2-6.7-10.6-11-13.4
		c-3.4-2.3-9.6-6.4-11.8-10.2c-2-3.5,1.9-6.5,3.7-2.3c0.4,1,0.6,2.4,0.8,4.4c0.2,0.8,0.7,1.3,1.4,1.3h17.4V193.5z M363.1,193.5
		c0.8,0,1.4-0.5,1.4-1.5c0-8.4-2.9-17.3-7.5-21.8c-4.5-4.4-10.6-6.8-17.5-6.8c-5.4,0-10.6,1.6-14.9,5c-5.4,4.3-9.2,11.5-9.2,19.3
		c0,9.3,5.1,17.4,11.5,22.5c3.9,3.1,8.8,6.7,12.2,10.5c5,5.5-0.8,10.5-4,4.2c-1-1.9-1.6-4.3-1.8-6.1c-0.1-1-0.5-1.5-1.4-1.5h-16.1
		c-0.6,0-1.1,0.3-1.1,1.1c0,8.2,1.5,16.9,6.5,23s11.9,8.2,19,8.2c7.9,0,15.2-3.6,19.8-10.7c4.3-6.9,6.1-17.3,2.7-25
		c-2.2-5.2-6.7-10.6-11-13.4c-3.4-2.3-9.6-6.4-11.8-10.2c-2-3.5,1.9-6.5,3.7-2.3c0.4,1,0.6,2.4,0.8,4.4c0.2,0.8,0.7,1.3,1.4,1.3
		h17.3V193.5z"/>
	<path id="Nesters_Market_00000058565849525672806250000009176456918060846765_" class="st3" d="M351.6,116.7
		c-0.3-0.5-0.9-1.2-1.4-1.4c-0.6-0.3-1.1-0.3-1.6-0.2c-0.3,0-0.7,0.1-1,0.2c-1,0.2-2.2,0.5-3.2,0.9c-0.4,0.1-1,0.3-1.3,0.5
		c-0.8,0.3-1.3,0.7-2,1.3c-0.6,0.5-1.2,1.2-1.8,1.8c-1,1.1-2,2.3-3,3.5c-6.3,7.6-12.5,15.2-18.8,22.8l0,0c-0.8,0.9-1.5,1.8-2.3,2.7
		c0.1-0.9,0.2-1.7,0.3-2.6c0.3-1.9,0.6-3.8,1-5.7c0.8-3.7,1.6-7.3,2.4-11c0.6-2.6,1.2-5.3,1.8-7.9c0.1-0.6,0.3-1.2,0.4-1.8
		c0.2-1.3-0.3-2.1-1.5-2.7c-0.7-0.3-1.4-0.5-2.1-0.5c-1.2,0-2.5,0.2-3.6,0.6c-0.9,0.3-1.6,0.6-2.4,0.9c-0.2,0.1-0.4,0.3-0.5,0.4
		c-0.8,1.3-1.7,2.6-2.6,3.8c-1.1,1.5-2.1,3-3.2,4.5c-2.1,2.9-4.2,5.7-6.3,8.6c-1.1,1.5-2.2,3.2-3.5,4.5c0-1.1,0-2.2,0.1-3.4
		c0.1-3,0.2-6,0.3-9c0.1-1.9,0.2-3.8,0.3-5.7c0-0.6,0.1-1.1,0.1-1.7c0-0.6,0-1-0.2-1.6c-0.6-1.7-2.3-2.1-3.9-1.8
		c-0.7,0.1-1.3,0.3-2,0.5c-1.1,0.3-2.3,0.7-3.3,1.1c-0.4,0.1-0.8,0.3-1.2,0.5c-0.4,0.2-0.6,0.3-0.7,0.7c-0.5,1.5-1,2.8-1.6,4.3
		c-0.6,1.2-1.2,2.5-1.9,3.7c-2.2,4.6-4.4,9.1-6.7,13.7c-1,2.1-2.1,4.3-3.2,6.4c-0.6,1.1-1.3,2.5-2.1,3.5c-0.3,0.4-0.7,0.9-0.9,1.4
		c-0.9,1.7,1,2.4,2.4,2c0.9-0.3,2-0.8,2.8-1.2c0.9-0.4,1.7-0.9,2.5-1.5c1.4-1,2-1.8,2.8-3.4c0.5-0.9,0.9-1.7,1.3-2.6
		c1.8-4,3.6-8,5.6-11.9c0.5-1.1,1.1-2.1,1.6-3.1c-0.3,4.6-0.4,9.2-0.6,13.9c0,1-0.1,2-0.1,3c0,0.9,0,2,0.2,2.9
		c0.1,0.6,0.3,1.1,0.7,1.6c0.7,0.8,1.6,0.9,2.6,0.9c0.9-0.1,1.7-0.3,2.5-0.7c1.4-0.8,2.2-1.7,3.2-2.9c1.2-1.4,2.3-2.8,3.5-4.4
		c1.1-1.5,2.3-3,3.4-4.6c1.5-2,2.9-4,4.4-6c0.9-1.3,1.9-2.6,2.8-3.9c-0.4,1.5-0.7,3.1-1.1,4.6c-0.4,1.8-0.8,3.7-1.3,5.5
		c-0.5,2.4-1,4.6-1.5,7.1c-0.2,1-0.4,2.2-0.5,3.2c0,0.4-0.1,0.9,0,1.3c0.3,1.6,2,1.9,3.3,1.4c0.4-0.2,0.7-0.4,1.1-0.6
		c0.7-0.4,1.4-0.8,2.2-1.2c-0.2,0.4-0.2,0.7,0,1.2c0.2,0.4,0.6,0.9,1,1.1c0.7,0.4,1.5,0.4,2.3,0.2s1.5-0.5,2.3-0.9
		c2-1.2,3.6-2.8,5-4.6c0.8-1.1,1.7-2.1,2.5-3.2l0,0l0,0l0,0c1-1.3,1.8-1.8,3.4-2c0.9-0.1,1.7-0.2,2.5-0.3c3.1-0.3,9.2-0.6,9.2-0.6
		c-0.1,0.8-0.1,1.7-0.2,2.5c-0.1,0.9-0.1,1.9-0.1,2.9c0,0.5,0,1.1-0.1,1.6c0,0.6,0,1.1,0,1.7c0.1,0.9,0.3,1.7,1,2.3
		c0.8,0.7,1.8,0.7,2.7,0.3c0.7-0.3,1.3-0.6,1.9-1s1.3-0.8,1.9-1.3c0.4-0.3,0.9-0.7,1.3-1c0.5-0.5,0.7-1.2,0.5-1.9
		c-0.1-0.3-0.1-0.6-0.2-1c-0.1-1.1-0.1-2.3,0-3.3c0.5-6.4,1.3-18.4,1.6-22c0-0.5,0.1-1,0.1-1.5c0.1-0.9,0.3-1.8,0.5-2.7
		C351.8,118.2,352,117.5,351.6,116.7z M341.3,136.8c0,0-6.8,0.4-8.4,0.5c1.7-2.3,3.6-4.3,5.5-6.4c1.3-1.4,2.6-2.8,3.8-4.2
		C341.8,130,341.6,133.4,341.3,136.8z M88.5,127.6c-0.3,0.7-0.7,1.4-1,2.1c-1.2,2.4-2.3,4.7-3.4,7.2c-0.5,1.2-1,2.4-1.6,3.7l0,0l0,0
		c-1.4-4.5-2.7-14.3-2.8-19.4c0-0.5-0.1-1-0.1-1.5c0-0.7-0.1-1.3-0.5-1.9c-0.6-0.9-1.8-1.3-2.9-1.2c-1.1,0.1-2.5,0.4-3.5,0.7
		c-1.1,0.3-2.2,0.6-3.2,1c-0.3,0.1-0.6,0.3-0.9,0.4c-0.4,0.2-0.8,0.5-1,0.9c-0.3,0.4-0.4,0.7-0.6,1.1c-0.4,1-0.8,2-1.2,2.9
		c-1.2,2.5-2.2,4.8-3.4,7.3c-1.8,3.7-3.6,7.4-5.4,11c-0.6,1.3-1.3,2.5-1.9,3.8c-0.5,1-1.1,2-1.6,3c-0.3,0.6-0.6,1.1-0.9,1.7
		c-0.6,1.2-0.5,2.1,0.8,2.8c0.4,0.2,0.9,0.3,1.4,0.3c0.8,0,1.5-0.2,2.3-0.6c1.2-0.6,2.5-1.1,3.7-1.7c0.4-0.2,0.8-0.4,1.2-0.7
		c0.4-0.3,0.7-0.7,1-1.1c0.2-0.4,0.4-0.7,0.5-1.1c0.1-0.5,0.3-1,0.5-1.5c0.5-1.3,1-2.6,1.5-3.9c0.8-1.8,1.6-3.5,2.5-5.3
		c1-2,2.1-3.9,3.1-5.9c0.2,2.6,0.6,5.2,1,7.8c0.6,3.7,1.3,8.1,2.7,11.6c1,2.5,2.7,3.1,5.3,2.3c2.1-0.6,4.2-1.5,6.2-2.4
		c1.7-0.8,2.4-1.3,2.8-3.3c0.3-1.4,0.8-2.8,1.2-4.1c0.9-2.5,2-5,3.1-7.3c1.3-2.7,2.7-5.3,4.1-8c1.3-2.4,2.8-4.8,4.3-7
		c0.4-0.5,0.7-1,1-1.5c0.3-0.4,0.6-0.8,0.8-1.3c0.2-0.4,0.1-0.8-0.1-1.2c-0.4-0.6-1-1-1.6-1.2c-0.5-0.2-1-0.2-1.5-0.2
		c-0.8,0-1.5,0.1-2.2,0.4c-0.9,0.2-1.6,0.5-2.4,0.9c-0.7,0.3-1.4,0.6-2.1,1c-0.3,0.2-0.7,0.5-0.9,0.7c-0.3,0.4-0.5,0.9-0.6,1.3
		c-0.1,0.5-0.3,1-0.5,1.4c-0.3,0.7-0.7,1.4-1,2.1C89.9,124.9,89.2,126.2,88.5,127.6L88.5,127.6z M153.5,122.8
		c-0.5,1.2-1.2,2.2-2.2,3c-0.5,0.5-1.1,1-1.8,1.3c-0.6,0.3-1.2,0.5-1.8,0.6c-0.6,0-1.2-0.2-1.6-0.7c-0.2-0.2-0.2-0.6-0.2-0.8
		c0-0.6,0.3-1.1,0.5-1.7c0.2-0.5,0.2-1.2,0.1-1.8c-0.1-0.9-0.6-1.3-1.5-1.5c-1.1-0.2-2.5-0.1-3.6,0.1c-0.9,0.2-1.7,0.5-2.5,0.9
		c-1.2,0.6-2.6,1.7-3.3,2.9c-0.4,0.6-0.5,1.4-0.5,2.1c0.1,2,1.7,2.4,3.3,2.9c1.9,0.5,3.8,1.1,5.7,1.6c1.5,0.4,3,0.9,4.3,1.7
		c2,1.3,2.9,3.2,2.7,5.5c-0.1,1.4-0.7,2.7-1.4,3.8c-1.3,2.1-3.3,3.9-5.3,5.4c-2.3,1.7-4.8,3.3-7.5,4.3c-2.3,0.9-4.9,1.4-7.3,1.4
		c-1.4,0-2.8-0.2-4-0.8c-1.6-0.7-2.8-2.1-3.3-3.8c-0.6,0.5-1.2,0.9-1.7,1.1c-1.4,0.8-2.9,1.3-4.5,1.8c-2.5,0.7-5.2,1.1-7.8,1.3
		c-3.3,0.3-7.5,0.5-10.3-1.8c-1.8-1.5-2.4-3.6-2-6c0.2-1.2,0.5-2.4,0.9-3.5c1.5-4.6,3.5-8.8,5.7-13.2l1.9-3.9c0.2-0.5,0.5-1,0.7-1.5
		c0.1-0.4,0.2-0.5,0-0.9c-0.1-0.3-0.2-0.6-0.3-0.8c-0.2-0.6-0.1-1.2,0.2-1.7s0.7-0.9,1.1-1.3c0.9-0.8,2-1.3,3.2-1.6
		c0.9-0.2,1.8-0.4,2.8-0.5c2.2-0.3,4.7-0.5,6.9-0.7c2.4-0.2,4.8-0.2,7.2-0.1c0.8,0,1.8,0,2.6,0.4c0.9,0.4,1.4,1.1,0.9,2
		c-0.5,1.2-2.5,2.6-3.7,3.2c-1.1,0.6-2.3,0.7-3.5,0.8c-1.8,0.1-3.6,0.1-5.4,0.2c-0.7,0-1.6,0.1-2.3,0.4c-0.7,0.3-0.8,0.4-1.2,1
		c-0.3,0.5-0.6,1-0.8,1.5c-0.5,0.9-1,2-1.5,3c-0.3,0.6-0.6,1.4-0.8,2l4.3-0.4c1.5-0.1,3-0.3,4.5-0.3c1.1-0.1,2.3-0.1,3.4-0.1
		c0.6,0,1.2,0.1,1.6,0.3c0.7,0.4,1.1,1.1,0.7,1.9c-0.5,0.9-1.8,1.8-2.6,2.3c-1.3,0.8-2.4,1.2-4,1.5c-1.2,0.2-2.3,0.2-3.5,0.3
		l-2.8,0.1c-0.4,0-0.7,0-1.1,0c-0.6,0-1.2,0.1-1.8,0.2c-0.7,0.1-1,0.2-1.4,0.8c-0.6,0.8-1.1,2.1-1.5,3s-0.7,2-1,2.9
		c-0.2,0.7-0.6,2.1-0.6,2.9c0.1,0.7,0.3,0.8,0.9,0.9c0.8,0.1,1.7,0.1,2.6,0.1c1.7,0,3.3-0.2,5-0.5c1.9-0.3,3.8-0.8,5.6-1.3
		c0.7-0.2,1.4-0.4,2.1-0.6c0.4-0.1,0.9-0.2,1.4-0.1v-0.1c0.3-0.8,0.8-1.6,1.3-2.2c0.6-0.7,1.4-1.4,2.3-1.6c0.9-0.2,1.9,0,2.3,0.9
		c0.3,0.7,0.1,1.5,0,2.2c-0.1,0.8,0,1.4,0.4,2c0.5,0.9,1.6,1.3,2.6,1.4c1.1,0.1,2.4,0,3.4-0.2c1.8-0.4,3.7-1,5.3-1.9
		c0.6-0.3,1.1-0.7,1.6-1.1c0.6-0.5,1.2-1.2,1.5-2c0.4-0.9,0.3-1.8-0.5-2.4c-0.5-0.3-1.2-0.5-1.7-0.6c-2-0.6-4.1-1.1-6.1-1.7
		c-2.4-0.7-5.2-1.5-6.7-3.7c-1.4-2.1-1.3-4.9-0.4-7.1c0.4-1,1-2,1.7-2.9c1.8-2.3,4.6-4.3,7.1-5.7c1.5-0.8,3.1-1.5,4.9-1.9
		c1.9-0.5,4.1-0.7,6.1-0.6c2.5,0.2,5.3,1.1,5.8,3.9C154,120.5,153.9,121.8,153.5,122.8z M234.1,116.8c-3.2-2-8.1-1.8-11.7-1.3
		c-4.5,0.5-8.5,1.6-12.7,3.2c-0.7,0.2-1.2,0.5-1.8,0.9c-0.6,0.4-1.3,0.8-1.6,1.5c-0.3,0.6-0.3,1.1,0,1.6c0.3,0.6,0.7,0.8,1.4,1
		c0.5,0.1,0.9,0.1,1.4,0c0.4-0.1,0.8-0.1,1.2-0.2c0,0-3.3,7-4.4,9.4c-1.4,2.9-2.7,5.9-3.8,8.9c-0.4,1-0.8,2.1-1.1,3.1
		c-0.6-0.2-1.3-0.1-1.8,0c-0.6,0.2-1.3,0.4-2,0.6c-1.7,0.5-3.5,1-5.3,1.3c-1.5,0.3-3.1,0.4-4.7,0.5c-0.8,0-1.7,0.1-2.4-0.1
		c-0.6-0.1-0.8-0.2-0.9-0.9c-0.1-0.7,0.3-2.2,0.5-2.9c0.3-0.9,0.6-2,0.9-2.9c0.3-0.9,0.8-2.3,1.4-3c0.4-0.6,0.7-0.7,1.4-0.8
		c0.5-0.1,1.1-0.1,1.7-0.2c0.4,0,0.7,0,1.1,0l2.6-0.1c1.1,0,2.2-0.1,3.3-0.3c1.5-0.3,2.5-0.7,3.7-1.5c0.8-0.5,2-1.4,2.5-2.3
		c0.4-0.8,0.1-1.5-0.6-1.9c-0.4-0.2-1-0.3-1.5-0.3c-1.1,0-2.2,0-3.2,0.1c-1.4,0.1-2.8,0.2-4.3,0.3l-4.1,0.4c0.2-0.7,0.5-1.4,0.8-2
		c0.4-1,1-2.1,1.4-3c0.2-0.5,0.5-1,0.8-1.5c0.3-0.6,0.5-0.8,1.1-1c0.6-0.3,1.5-0.3,2.2-0.4c1.7-0.1,3.4-0.1,5.1-0.2
		c1.1-0.1,2.2-0.3,3.3-0.8c1.1-0.6,2.9-1.9,3.4-3.2c0.4-1,0-1.6-0.9-2c-0.7-0.3-1.7-0.3-2.5-0.4c-2.2-0.1-4.6-0.1-6.8,0.1
		c-2.1,0.2-4.4,0.4-6.5,0.7c0,0,0,0-0.1,0c0.6-0.9,0.6-1.8-0.6-2.3c-0.7-0.3-1.3-0.2-2.1-0.1c-0.9,0.1-2,0.3-3,0.4
		c-1.9,0.3-3.7,0.5-5.6,0.6c-5.3,0.5-13.9,1.4-14,1.4c-0.6,0-1.3,0.1-1.9,0.1c-0.3,0-0.8,0.1-1.1,0.1c-0.2,0-0.5,0.1-0.7,0.2
		c-0.6,0.3-1.2,0.6-1.8,0.9c-1,0.6-2,1.2-3,1.9c-0.7,0.5-1.3,1-1.8,1.7c-0.4,0.7-0.3,1.3,0.3,1.8c0.4,0.4,0.9,0.5,1.4,0.6
		c0.6,0.1,1,0.1,1.5,0c0.5,0,1-0.1,1.5-0.1c2.3-0.3,4.6-0.5,6.9-0.8c-1.3,2.4-2.5,4.7-3.8,7.1c-2.1,3.9-3.8,7.6-5.4,11.8
		c-0.9,2.4-2.6,6.6-2.8,9.1c-0.1,1.8,1.2,2.5,2.9,2.2c1.6-0.3,3.5-1.3,5-2c0.5-0.3,1.3-0.7,1.7-1.1c0.4-0.4,0.6-0.7,0.7-1.2
		c0.1-0.3,0.1-0.6,0.2-0.9c0-0.5,0.1-0.8,0.2-1.3c0.2-0.8,0.5-1.7,0.7-2.5c0.5-1.5,1.1-3,1.7-4.4c1.2-3,2.5-5.8,3.9-8.6
		c1.1-2.2,3.6-7.3,5.1-9.2c0.3-0.1,0.6-0.1,0.9-0.1c0.8-0.1,1.6-0.1,2.3-0.2c1.3-0.1,2.4-0.3,3.6-0.6c0,0.2,0,0.4,0.1,0.6
		c0.1,0.3,0.2,0.6,0.3,0.8c0.1,0.4,0.1,0.5,0,0.9c-0.2,0.5-0.4,1-0.6,1.5l-1.8,3.9c-2,4.4-3.9,8.6-5.3,13.2
		c-0.4,1.1-0.7,2.3-0.8,3.5c-0.3,2.3,0.2,4.4,1.9,6c2.6,2.3,6.5,2.1,9.7,1.8c2.5-0.2,5-0.7,7.3-1.3c1.5-0.5,2.9-1,4.2-1.8
		c0.3-0.2,0.6-0.4,1-0.7c-0.1,0.6-0.2,1.1-0.2,1.7c-0.1,1.8,1.3,2.4,2.9,2c1-0.3,1.8-0.7,2.7-1.2c0.8-0.4,1.5-0.8,2.2-1.3
		c0.6-0.4,1-0.7,1.3-1.5c0.3-0.7,0.4-1.4,0.5-2.1c0.6-2.6,1.4-5.3,2.5-7.7c0.4,0.7,1,1.4,1.4,2.1c1.4,2.1,2.9,4.2,4.4,6.4
		c0.7,1,1.4,2,2.2,2.9c0.4,0.5,0.8,1,1.3,1.4c1.4,1.2,2.8,1.3,4.5,0.7c0.8-0.3,1.9-0.9,2.7-1.6c0.4-0.3,0.7-0.7,1-1.1
		c0.4-0.6,0.5-1.2,0-1.8c-0.2-0.2-0.3-0.3-0.6-0.5c-0.4-0.3-0.6-0.4-1-0.7c-0.3-0.2-0.6-0.5-0.8-0.8c-0.7-0.8-1.3-1.6-2-2.5
		c-1.2-1.7-2.4-3.4-3.6-5.2c-0.3-0.5-1.2-1.8-1.5-2.4c1.8-0.6,2.9-1.1,4.4-1.8c1.8-0.9,3.6-1.8,5.3-2.9c2-1.3,3.7-2.5,5.2-4.4
		c1.3-1.5,2-2.8,2.3-4.8C237,120.4,236.3,118.4,234.1,116.8z M227.5,124.3c-0.2,0.7-0.5,1.1-0.9,1.7c-2.1,2.9-5.7,4.8-8.9,5.9
		c-0.7,0.3-1.5,0.5-2.3,0.6c-0.3,0.1-0.7,0.1-1,0.1c0.6-1.9,1.9-4.4,2.8-6.3c0.6-1.3,1.2-2.6,2-3.8c0.2-0.3,0.3-0.4,0.6-0.6
		c0.4-0.2,1-0.3,1.5-0.4c1-0.2,1.9-0.3,2.9-0.4c0.7,0,1.2,0,1.9,0.2C227.4,121.9,227.8,123.1,227.5,124.3z M251.9,131.8
		c-1.8-0.5-3.7-1.1-5.5-1.6c-1.5-0.4-3.1-0.9-3.2-2.9c0-0.7,0.1-1.5,0.5-2.1c0.6-1.2,2-2.3,3.2-2.9c0.8-0.4,1.6-0.7,2.4-0.9
		c1-0.2,2.4-0.3,3.5-0.1c0.9,0.2,1.4,0.5,1.5,1.5c0.1,0.6,0,1.2-0.1,1.8c-0.2,0.6-0.5,1-0.5,1.7c0,0.3,0.1,0.6,0.2,0.8
		c0.3,0.5,0.9,0.7,1.5,0.7c0.7,0,1.2-0.2,1.8-0.6c0.6-0.4,1.2-0.8,1.7-1.3c0.9-0.9,1.6-1.8,2.1-3c0.4-1,0.5-2.3,0.3-3.4
		c-0.5-2.8-3.2-3.8-5.6-3.9c-1.9-0.1-4,0.1-5.9,0.6c-1.7,0.4-3.2,1.1-4.7,1.9c-2.5,1.4-5.2,3.4-6.9,5.7c-0.7,1-1.3,1.9-1.7,2.9
		c-0.9,2.2-1,5.1,0.4,7.1c1.5,2.2,4.1,3,6.4,3.7c2,0.6,3.9,1.1,5.9,1.7c0.5,0.2,1.2,0.3,1.6,0.6c0.9,0.5,0.9,1.5,0.5,2.4
		c-0.3,0.8-0.8,1.4-1.5,2c-0.5,0.4-1,0.8-1.5,1.1c-1.5,0.9-3.4,1.6-5.1,1.9c-1,0.2-2.3,0.4-3.3,0.2c-1-0.1-2-0.5-2.5-1.4
		c-0.4-0.6-0.4-1.3-0.4-2c0.1-0.7,0.3-1.5,0-2.2c-0.4-0.9-1.4-1.1-2.2-0.9c-0.9,0.2-1.7,0.8-2.2,1.6c-0.5,0.6-1,1.4-1.2,2.2
		c-0.5,1.4-0.7,3-0.4,4.5c0.4,1.8,1.6,3.3,3.3,4.1c1.2,0.6,2.6,0.8,3.9,0.8c2.4,0.1,4.9-0.5,7.1-1.4c2.6-1,5-2.6,7.2-4.3
		c1.9-1.5,3.8-3.3,5.1-5.4c0.7-1.2,1.2-2.4,1.4-3.8c0.2-2.3-0.7-4.3-2.6-5.5C254.8,132.7,253.3,132.2,251.9,131.8L251.9,131.8z
		 M437.4,130.8l-4.3,0.4c0.2-0.7,0.5-1.4,0.8-2c0.5-1,1-2.1,1.5-3c0.3-0.5,0.5-1,0.8-1.5c0.4-0.6,0.5-0.7,1.2-1s1.6-0.3,2.3-0.4
		c1.8-0.1,5.7-0.1,7.5-0.2c1.2-0.1,2.3-0.3,3.4-0.8c1.1-0.6,3.1-1.9,3.6-3.2c0.4-1,0-1.6-0.9-2c-0.8-0.3-1.8-0.3-2.6-0.4
		c-2.4-0.1-6.9-0.1-9.3,0.1c-2.2,0.2-4.7,0.4-6.9,0.7c-0.9,0.1-1.9,0.3-2.8,0.5c-1.2,0.3-2.3,0.8-3.2,1.6c-0.4,0.4-0.8,0.7-1.1,1.3
		c-0.3,0.5-0.4,1.1-0.2,1.7c0.1,0.3,0.2,0.6,0.3,0.8c0.1,0.4,0.1,0.5,0,0.9c-0.2,0.5-0.4,1-0.7,1.5l-1.9,3.9
		c-2.1,4.4-4.1,8.5-5.6,13.2c-0.4,1.1-0.7,2.3-0.9,3.5c-0.3,2.3,0.2,4.4,2,5.9c2.7,2.3,6.9,2.1,10.2,1.8c2.6-0.2,5.3-0.7,7.8-1.3
		c1.6-0.5,3-1,4.5-1.8c1.2-0.7,3.5-2.2,3.8-3.7c0.1-0.6,0.1-1-0.3-1.5c-0.7-0.8-2-0.8-2.9-0.5c-0.7,0.2-1.3,0.4-2.1,0.6
		c-1.8,0.5-3.7,1-5.6,1.3c-1.6,0.3-3.3,0.4-4.9,0.5c-0.8,0-1.8,0.1-2.5-0.1c-0.7-0.1-0.9-0.2-0.9-0.9c-0.1-0.7,0.4-2.2,0.6-2.9
		c0.3-0.9,0.6-2,1-2.9c0.3-0.9,0.9-2.2,1.5-3c0.4-0.6,0.8-0.7,1.4-0.8s1.2-0.1,1.8-0.2c0.4,0,0.7,0,1.1,0l2.7-0.1
		c1.2,0,2.3-0.1,3.5-0.3c1.5-0.3,2.6-0.7,3.9-1.5c0.9-0.5,2.2-1.4,2.6-2.3c0.4-0.7,0.1-1.5-0.7-1.9c-0.4-0.2-1-0.3-1.6-0.3
		c-1.1,0-2.3,0-3.4,0.1C440.4,130.5,438.9,130.7,437.4,130.8L437.4,130.8z M476.5,116.1c-5.1,0.5-13.5,1.4-13.5,1.4
		c-0.6,0-1.2,0.1-1.8,0.1c-0.3,0-0.7,0.1-1.1,0.1c-0.2,0-0.5,0.1-0.7,0.2c-0.6,0.3-1.2,0.6-1.7,0.9c-1,0.6-2,1.2-2.9,1.9
		c-0.7,0.5-1.3,1-1.7,1.7c-0.4,0.7-0.3,1.3,0.3,1.8c0.4,0.4,0.8,0.5,1.3,0.6s0.9,0.1,1.5,0c0.5,0,1-0.1,1.4-0.1
		c2.2-0.3,4.5-0.5,6.7-0.8c-1.2,2.4-2.5,4.7-3.7,7.1c-2,3.9-3.7,7.6-5.2,11.8c-0.9,2.4-2.5,6.6-2.7,9.1c-0.1,1.8,1.2,2.5,2.8,2.2
		c1.5-0.3,3.4-1.3,4.8-2c0.5-0.3,1.2-0.7,1.7-1.1c0.4-0.4,0.6-0.7,0.7-1.2c0.1-0.3,0.1-0.6,0.1-0.9c0-0.5,0.1-0.8,0.2-1.3
		c0.2-0.8,0.5-1.7,0.7-2.5c0.5-1.5,1-3,1.6-4.4c1.2-3,2.4-5.8,3.8-8.6c1.1-2.2,3.5-7.3,4.9-9.2c0.3-0.1,0.6-0.1,0.9-0.1
		c0.8-0.1,1.5-0.1,2.3-0.2c2-0.2,3.7-0.4,5.7-1.4c1-0.5,1.9-1.1,2.8-1.8c0.5-0.4,1.2-1,1.6-1.5c0.7-1,0.7-2-0.5-2.5
		c-0.7-0.3-1.3-0.2-2-0.1c-0.9,0.1-1.9,0.3-2.9,0.4C480.1,115.8,478.5,116,476.5,116.1L476.5,116.1z M426.8,119.9
		c-0.3-1-1.2-1.8-2.2-2.2s-1.8-0.4-2.8,0c-0.6,0.3-1.1,0.6-1.6,1.1c-1.9,1.4-3.8,2.7-5.8,3.9c-1.9,1.2-3.9,2.4-5.8,3.6
		c-1.6,1-3.3,2-4.9,2.9c-0.1,0.1-0.7,0.4-0.7,0.4c0.9-1.5,1.7-2.9,2.5-4.3c0.9-1.4,1.8-2.9,2.8-4.2c0.4-0.5,0.8-1,1.2-1.6
		c0.7-1.3-0.2-2.3-1.3-2.7c-0.9-0.3-2-0.2-2.9-0.1c-1.1,0.1-2.1,0.4-3.1,0.7c-0.9,0.3-1.8,0.6-2.6,1c-0.5,0.2-0.9,0.5-1.2,0.9
		c-0.4,0.4-0.5,0.9-0.6,1.4s-0.1,0.8-0.4,1.3c-0.2,0.3-0.3,0.6-0.4,0.8c-0.7,1.3-1.5,2.4-2.3,3.7c-2.8,4.6-5.5,9.5-7.8,14.4
		c-1,2.1-1.8,4.1-2.5,6.3c-0.2,0.7-0.4,1.4-0.6,2c-0.1-0.1-0.2-0.1-0.3-0.2c-0.4-0.3-0.7-0.4-1.1-0.7c-0.3-0.2-0.6-0.5-0.9-0.8
		c-0.8-0.8-1.5-1.6-2.2-2.4c-1.4-1.7-2.8-3.4-4.1-5.2c-0.4-0.5-1.3-1.8-1.6-2.4c2-0.6,3.3-1.1,5-1.8c2.1-0.9,4-1.8,6-2.9
		c2.3-1.3,4.2-2.5,5.9-4.4c1.4-1.5,2.3-2.8,2.6-4.8c0.5-2.6-0.3-4.6-2.8-6.1c-3.6-2-9.2-1.8-13.3-1.3c-5.1,0.5-9.7,1.6-14.4,3.2
		c-0.7,0.2-1.4,0.5-2.1,0.9s-1.4,0.8-1.8,1.5c-0.3,0.6-0.3,1.1,0,1.6c0.3,0.6,0.8,0.8,1.5,1c0.6,0.1,1,0.1,1.6,0
		c0.4-0.1,0.9-0.1,1.3-0.2c0,0-3.8,7-5,9.3c-1.5,2.9-3,5.8-4.3,8.8c-1,2.3-2,4.8-2.7,7.1c-0.2,0.9-0.4,1.8-0.5,2.7
		c-0.1,1.8,1.5,2.4,3.3,2c1.1-0.3,2.1-0.7,3.1-1.2c0.9-0.4,1.7-0.8,2.5-1.3c0.7-0.4,1.2-0.7,1.5-1.5c0.3-0.6,0.4-1.4,0.6-2.1
		c0.6-2.6,1.6-5.3,2.8-7.7c0.5,0.7,1.1,1.4,1.6,2.1c1.6,2.1,3.3,4.2,5,6.3c0.8,1,1.6,1.9,2.5,2.9c0.5,0.5,0.9,1,1.4,1.4
		c1.6,1.2,3.1,1.3,5.1,0.7c0.9-0.3,2.2-0.9,3.1-1.5c0.1,0,0.1-0.1,0.2-0.1c0,0.1,0,0.2,0,0.3c0,1.4,1.5,1.7,2.6,1.6
		c1.7-0.2,5.2-1.7,6.8-2.6c1.3-0.7,1.6-1.3,2-2.6c0.5-1.8,0.9-3.4,1.6-5.3c0.2-0.6,1.8-4.1,2.3-5.2c1.2,2.4,2.5,4.7,3.9,7
		c1.4,2.2,2.9,4.3,4.6,6.3c0.7,0.8,1.5,1.6,2.4,2.2c1.6,1.1,3,1.3,4.8,0.5c1.3-0.6,3-1.8,3.8-2.9c0.8-1,0.8-1.7-0.1-2.6
		c-0.3-0.4-0.8-0.6-1.2-0.9c-1.2-0.8-1.8-1.4-2.7-2.4c-1.2-1.5-2.5-3.3-3.7-5c-1-1.4-2.7-4-3.3-5.7c-0.1-0.2-0.1-0.4,0.1-0.6
		c0.2-0.2,0.4-0.4,0.7-0.6c0.8-0.6,1.5-1.1,2.3-1.6c1.7-1.2,3.3-2.2,5.1-3.3c2.1-1.2,4.2-2.7,6.2-3.9c1.2-0.7,2.5-1.4,3.7-2
		c0.4-0.2,0.8-0.4,1.1-0.7C426.8,121.7,427.1,120.8,426.8,119.9z M371.6,132.5c-0.8,0.3-1.7,0.5-2.6,0.6c-0.4,0.1-0.8,0.1-1.1,0.1
		c0.7-1.9,2.2-4.4,3.2-6.2c0.7-1.3,1.4-2.6,2.3-3.8c0.2-0.3,0.3-0.4,0.7-0.6c0.5-0.2,1.2-0.3,1.7-0.4c1.1-0.2,2.2-0.3,3.3-0.4
		c0.8,0,1.4,0,2.2,0.2c1.5,0.4,1.9,1.6,1.5,2.9c-0.2,0.7-0.5,1.1-1,1.7C379.4,129.5,375.2,131.3,371.6,132.5z"/>
</g>
</svg>
