<svg width="180" height="181" viewBox="0 0 180 181" fill="none" xmlns="http://www.w3.org/2000/svg">
<path d="M20.3077 108.483C26.0769 108.483 32.5385 108.223 39.9231 107.963C40.1538 103.281 40.3846 98.3387 40.8462 93.1364C27.4615 92.8763 14.7692 91.5757 3 89.2346C0.92308 83.7722 0 74.4081 0 61.1422C0 50.9977 0.230776 32.5294 0.923083 5.73754C2.76924 5.2173 5.3077 4.69709 8.30769 4.69709C10.6154 4.69709 12.9231 5.2173 15.4615 5.73754C15.4615 15.1017 15.6923 37.9919 16.6154 74.4081C25.1539 75.1884 33.4615 75.7086 41.7692 75.9688C42.2308 68.9456 42.6923 61.6624 43.3846 54.119C36.4615 53.5988 29.7692 52.5584 23.3077 51.2578C23.3077 46.0555 23.7692 41.3734 24.6923 37.2115C31.3846 37.7318 38.0769 38.252 44.7692 38.7722C45 34.0901 45.4615 29.1479 45.9231 24.2058C50.7692 24.2058 55.6154 24.9861 60.2308 26.2867C60.2308 29.4081 60 34.0901 59.7692 40.3329C64.8462 40.8531 69.9231 41.6335 75 42.1537C75 46.3156 74.3077 50.7375 73.1539 55.9398C68.3077 55.9398 63.6923 55.9398 59.0769 55.4196C58.6154 61.9225 58.1538 68.9456 57.6923 76.7491C65.5385 77.2693 73.3846 77.2693 81.2308 77.2693C81.9231 73.8878 82.3846 68.6855 82.3846 61.6624C82.3846 49.4369 82.1538 35.6508 81.6923 20.0439C51.9231 18.4832 33.4615 17.1826 26.3077 16.1422C25.3846 14.8416 25.1539 11.9803 25.1539 7.81848C25.1539 5.47744 25.1539 2.87627 25.6154 0.275116C49.6154 0.795356 72.9231 2.09594 95.7692 4.69709C96.9231 13.0208 97.6154 32.0092 97.6154 61.6624C97.6154 75.1884 97.1538 85.0728 96.6923 91.5757C88.3846 92.6161 75 93.1364 56.7692 93.1364C56.5385 98.3387 56.3077 103.281 56.0769 107.963H58.3846C65.5385 107.963 70.6154 108.483 73.6154 109.003C73.8461 111.084 74.0769 113.165 74.0769 115.246V122.269C72.6923 123.83 67.3846 124.35 57.9231 124.35H54.6923C54.2308 130.593 53.5385 136.576 53.0769 142.298C54.9231 142.298 56.5385 142.298 58.3846 142.298C67.1539 142.298 73.3846 142.818 77.0769 143.339C77.3077 145.16 77.5385 147.24 77.5385 149.842V156.865C75.9231 158.425 69.4615 158.946 57.9231 158.946C40.1538 158.946 27.4615 158.425 19.6154 157.125C18.9231 155.044 18.6923 152.703 18.6923 149.581C18.6923 146.98 18.6923 144.639 19.1539 142.558C25.1539 142.558 31.6154 142.298 38.7692 142.298C38.7692 136.576 39 130.333 39.2308 124.09C31.1538 123.83 24.9231 123.31 20.7692 122.79C20.0769 120.709 19.8462 118.107 19.8462 115.246C19.8462 112.645 19.8462 110.564 20.3077 108.483ZM113.077 19.5237C133.846 21.0844 155.308 23.6855 177 27.3271C175.615 36.4312 173.769 45.015 171 53.3387C169.846 58.541 168.231 63.2231 166.385 67.3849C169.154 68.4254 171.692 69.2058 174.462 69.9861C173.769 74.6682 172.385 79.6104 170.538 84.8127C153.923 82.4716 140.308 78.83 130.154 73.8878C132 67.6451 133.615 62.963 135 59.5815C140.538 60.6219 145.846 61.6624 151.385 62.963C154.154 55.1595 156.462 48.3965 158.077 42.1537C141 39.8127 125.538 37.7318 111.462 36.1711C111.462 30.1884 111.923 24.726 113.077 19.5237ZM140.769 120.709C144.692 147.24 146.769 166.489 146.769 177.934C142.615 179.495 138 180.275 132.923 180.275C126.462 180.275 120.692 179.755 115.615 179.235C114.231 175.593 113.769 171.951 113.769 168.31C118.385 167.269 124.154 166.749 131.077 166.749C129.692 151.662 128.538 136.836 127.615 122.269C131.769 121.229 136.154 120.709 140.769 120.709ZM180 95.2173C180 106.662 178.615 118.368 176.308 130.853C172.154 130.853 167.769 130.333 163.154 129.292C163.154 123.05 163.846 117.067 165.462 111.084C143.769 114.206 120.692 115.506 96.2308 115.506C95.7692 110.304 95.7692 105.622 95.7692 101.46C123.462 97.2982 151.385 95.2173 180 95.2173Z" fill="#BF83FC"/>
</svg>
